<svg width="148" height="148" viewBox="0 0 148 148" fill="none" xmlns="http://www.w3.org/2000/svg">
<path fill-rule="evenodd" clip-rule="evenodd" d="M64.3363 125.578L61.6443 126.563C61.5903 126.564 61.5093 126.653 61.4773 126.583L61.3653 126.424L61.1413 126.106L60.6953 125.471L59.8603 124.24L58.0233 121.49C56.7863 119.666 55.6073 117.801 54.4033 115.954C53.1913 114.113 52.0353 112.235 50.8633 110.368C49.6803 108.508 48.5463 106.615 47.4103 104.725C45.7223 101.986 44.0913 99.2094 42.4823 96.4264C36.9633 86.5154 31.9643 76.2974 27.8673 65.7114C26.1223 60.9884 24.3783 56.2264 23.0623 51.3954C22.1293 48.3184 21.4343 45.1634 20.7693 42.0084L20.0253 37.2244C19.8243 35.6234 19.7543 34.0064 19.6403 32.4024C19.5193 30.3964 20.0133 30.6494 20.6503 32.2834C20.9683 33.0994 21.3233 34.2594 21.6503 35.6584C21.9663 37.0594 22.4483 38.6804 22.7403 40.4704C23.9513 46.7904 25.6703 53.0174 27.7753 59.1404C29.9333 65.2464 32.4033 71.2644 35.0803 77.2354C38.3293 84.3614 42.3623 91.4684 46.4493 98.3664C50.9403 105.955 55.7143 113.39 60.6893 120.689L61.8393 122.372L62.2493 122.98C62.3423 123.097 62.4133 123.287 62.5293 123.338L63.7703 122.884C64.4223 122.647 65.0883 122.453 65.7473 122.236C68.3963 121.421 71.0903 120.789 73.7983 120.291C82.0213 118.814 90.3713 118.561 98.5413 118.163C104.883 117.837 111.136 117.402 117.116 116.083C117.774 115.939 118.405 115.747 119.046 115.581C119.668 115.372 120.304 115.193 120.923 114.966C122.081 114.569 123.006 114.184 123.756 113.827C124.122 113.635 124.476 113.496 124.784 113.348C125.078 113.183 125.348 113.041 125.6 112.916C126.57 112.384 127.198 112.103 127.784 111.903C128.057 111.817 128.387 111.658 128.597 111.631C128.952 111.586 128.87 112.02 128.369 112.931C127.836 113.788 126.774 115.096 125.019 116.183C122.421 117.813 119.491 118.664 116.586 119.315C113.665 119.95 110.705 120.279 107.748 120.534C101.829 121.018 95.8883 121.135 89.9883 121.469C81.2503 121.955 72.4663 122.796 64.3693 125.639L64.3363 125.578Z" fill="#202020"/>
<path fill-rule="evenodd" clip-rule="evenodd" d="M105.645 62.6771C107.058 66.7431 108.662 70.7511 110.388 74.7071C111.006 76.1571 111.768 77.5391 112.411 78.9761C114.743 84.0141 117.238 88.9961 120.088 93.7691L121.036 95.3611L122.046 96.9111C122.73 97.9361 123.366 98.9961 124.098 99.9721C125.03 101.23 125.918 102.535 126.916 103.736C127.407 104.344 127.876 104.971 128.331 105.61C128.825 106.207 129.311 106.814 129.79 107.433C130.381 108.207 130.054 108.375 129.194 108.044C128.362 107.7 126.822 106.935 125.622 105.515C124.519 104.28 123.53 102.975 122.545 101.664C121.527 100.372 120.651 98.9971 119.723 97.6461C117.978 94.8801 116.348 92.0401 114.879 89.1051C113.97 87.3641 113.045 85.5941 112.115 83.8131C111.147 82.0501 110.263 80.2321 109.394 78.4261C107.502 74.4461 105.82 70.3671 104.245 66.2531C103.729 64.9991 103.322 63.7021 102.867 62.4251C102.434 61.1391 101.946 59.8751 101.552 58.5771C100.966 56.6071 100.323 54.6521 99.7919 52.6661C99.3099 50.6661 98.7259 48.6981 98.2869 46.7041C97.9579 45.1511 97.5899 43.6201 97.2279 42.0891C96.9399 40.5441 96.6909 38.9911 96.4329 37.4311C96.3739 37.0871 96.3159 36.7471 96.2569 36.4061C96.2139 36.0641 96.1939 35.7171 96.1699 35.3651C96.0089 32.7551 96.1919 31.9131 96.7929 31.3571C96.9329 31.2301 97.0679 31.0641 97.2079 30.9911C97.6779 30.7491 98.1449 31.7841 98.4259 33.6081C99.1629 39.0201 100.323 44.6501 101.832 50.2561C102.333 52.3491 102.992 54.4111 103.626 56.4831C104.215 58.5681 104.995 60.5991 105.704 62.6501L105.645 62.6771Z" fill="#202020"/>
<path fill-rule="evenodd" clip-rule="evenodd" d="M110.456 123.41C107.283 123.52 96.163 123.623 87.747 125.21C76.894 127.256 65.346 129.153 60.805 130.932C39.008 103.894 22.249 75.706 18 46.97L21.459 41.297C21.459 41.297 34.91 88.557 48.796 105.991L61.858 125.53C61.858 125.53 72.754 120.128 116.704 118.755C116.704 118.755 112.675 123.333 110.456 123.41" fill="#202020"/>
<path fill-rule="evenodd" clip-rule="evenodd" d="M78.495 31.0618C76.185 31.2208 73.879 31.2638 71.579 31.3058C70.74 31.3188 69.904 31.3768 69.066 31.3728C66.111 31.3278 63.164 31.1968 60.227 31.0308C58.924 30.9618 57.613 30.9478 56.319 30.9158C54.66 30.8378 52.984 30.9108 51.344 30.4878C50.833 30.3608 50.921 30.0328 51.378 29.6538C51.835 29.2738 52.663 28.7688 53.614 28.7818C56.992 28.6688 60.34 28.8908 63.732 29.1468C65.761 29.3168 67.871 29.1748 69.942 29.1218C72.221 29.0818 74.497 28.9788 76.771 28.8358C78.165 28.7148 79.568 28.6298 80.954 28.4398C83.061 28.2008 85.168 27.8768 87.211 27.3898C88.793 26.9878 90.301 26.4368 91.79 25.8508C92.118 25.7208 92.438 25.5898 92.771 25.4758C93.08 25.3688 93.341 25.2908 93.566 25.2418C93.793 25.2028 93.995 25.2158 94.163 25.2308C94.502 25.2668 94.741 25.3968 94.972 25.5938C95.077 25.6828 95.199 25.7568 95.273 25.8408C95.513 26.0958 95.157 26.6848 94.313 27.3208C91.687 28.8828 88.581 29.7058 85.48 30.2718C83.167 30.6618 80.831 30.9428 78.504 31.1208L78.495 31.0618Z" fill="#202020"/>
<path fill-rule="evenodd" clip-rule="evenodd" d="M35.8276 30.0862L32.3896 29.5852C31.9716 29.5282 31.5496 29.5292 31.1326 29.4712C29.6606 29.2632 28.1906 29.0432 26.7206 28.9132C26.0686 28.8522 25.4096 28.8612 24.7706 28.8802C23.9396 28.8752 23.1416 29.0272 22.3466 28.9112C22.0946 28.8752 22.0376 28.6102 22.1906 28.2442C22.2656 28.0622 22.3986 27.8432 22.5846 27.6402C22.7646 27.4632 22.9966 27.3342 23.2596 27.2792C25.0786 26.9382 26.8246 27.1262 28.5586 27.4182C29.5956 27.6072 30.6806 27.5882 31.7406 27.6882L35.2256 28.0672L37.3666 28.3082C38.4486 28.4172 39.5316 28.5572 40.6096 28.6032C41.4476 28.6322 42.2756 28.5622 43.1076 28.5362C43.2906 28.5302 43.4716 28.5022 43.6546 28.5252C43.9946 28.5462 44.2136 28.6252 44.3606 28.7782C44.5096 28.9112 44.5886 29.0852 44.6456 29.3062C44.6726 29.4062 44.7096 29.5012 44.7236 29.5872C44.7706 29.8552 44.4686 30.1892 43.9516 30.4072C42.4366 30.7772 40.8726 30.6762 39.3086 30.5352C38.1476 30.4292 36.9856 30.2682 35.8256 30.1352L35.8276 30.0862Z" fill="#202020"/>
<path fill-rule="evenodd" clip-rule="evenodd" d="M35.4594 24.681C35.3274 25.032 34.9904 25.147 34.4294 25.154C34.2524 25.156 33.8724 24.922 33.8834 24.786C33.9054 24.524 33.9324 24.25 34.0034 23.992C34.0354 23.919 34.3464 23.342 34.8384 22.748C35.3344 22.161 36.0264 21.591 36.4194 21.349C37.1614 20.855 38.0484 20.57 38.9364 20.475C40.7604 20.267 42.5214 20.756 44.0244 21.515C44.3604 21.693 44.6784 21.922 44.9724 22.164C45.9554 23.049 46.8334 24.001 47.5644 25.039C47.6834 25.213 47.8044 25.395 47.9624 25.535C48.1044 25.644 48.5974 26.455 48.9494 27.315C49.3064 28.173 49.5564 29.054 49.5824 29.261C49.7334 30.296 49.8594 31.291 49.9634 32.28C49.9774 32.42 50.0394 32.559 49.9764 32.705C49.8284 33.042 49.9294 33.324 49.9794 33.622C50.0494 34.034 50.1104 34.444 50.1374 34.861C50.1454 35.068 50.0704 35.294 50.0244 35.515C49.9824 35.717 49.6604 35.702 49.6094 35.647C49.4664 35.49 49.3614 35.677 49.2404 35.728C49.1994 35.745 49.1464 35.767 49.1094 35.768C48.9954 35.779 47.8724 33.529 47.8324 33.274C47.8234 33.244 47.5784 32.396 47.3214 31.506C47.0534 30.633 46.7344 29.763 46.6484 29.599C46.5644 29.423 46.5544 29.219 46.5184 29.025C46.5014 28.987 46.2444 28.355 45.9154 27.795C45.5974 27.225 45.2264 26.721 45.1954 26.687C44.9464 26.252 44.5834 25.935 44.3924 25.456C44.3514 25.363 44.2724 25.3 44.2014 25.234C43.5634 24.696 42.9374 24.155 42.1594 23.737C41.7684 23.536 41.3504 23.401 40.9394 23.298C40.8654 23.28 40.7974 23.234 40.7254 23.203C40.6344 23.162 40.5434 23.115 40.4474 23.108C39.4634 22.956 38.4394 22.973 37.5874 23.463C37.4964 23.529 37.1784 23.612 36.8784 23.776C36.5704 23.922 36.2764 24.13 36.1884 24.234C36.0944 24.346 35.5024 24.517 35.4594 24.681" fill="#202020"/>
<path fill-rule="evenodd" clip-rule="evenodd" d="M71.185 22.0477C71.075 22.3717 70.752 22.4627 70.205 22.4477C70.033 22.4437 69.651 22.2107 69.657 22.0827C69.668 21.8367 69.685 21.5787 69.746 21.3367C69.773 21.2687 70.055 20.7327 70.507 20.1787C70.962 19.6307 71.601 19.0957 71.965 18.8677C72.651 18.4017 73.477 18.1347 74.303 18.0457C76 17.8507 77.635 18.3007 79.027 19.0007C79.338 19.1657 79.633 19.3787 79.903 19.6057C80.807 20.4357 81.618 21.3167 82.296 22.2737C82.406 22.4347 82.517 22.6037 82.669 22.7287C82.804 22.8277 83.262 23.5757 83.586 24.3677C83.915 25.1587 84.144 25.9687 84.166 26.1587C84.293 27.1137 84.4 28.0267 84.485 28.9337C84.496 29.0627 84.556 29.1897 84.49 29.3237C84.337 29.6367 84.432 29.8937 84.476 30.1667C84.538 30.5427 84.591 30.9177 84.609 31.2997C84.613 31.4897 84.534 31.6987 84.483 31.9027C84.437 32.0887 84.117 32.0817 84.068 32.0327C83.929 31.8917 83.82 32.0657 83.699 32.1147C83.658 32.1317 83.604 32.1537 83.568 32.1547C83.456 32.1677 82.38 30.1187 82.345 29.8857C82.336 29.8587 82.109 29.0867 81.87 28.2737C81.621 27.4797 81.327 26.6907 81.247 26.5427C81.168 26.3837 81.164 26.1967 81.133 26.0197C81.119 25.9857 80.881 25.4137 80.58 24.9097C80.289 24.3967 79.951 23.9467 79.923 23.9167C79.701 23.5237 79.369 23.2457 79.212 22.8027C79.179 22.7167 79.107 22.6607 79.043 22.6027C78.468 22.1237 77.913 21.6317 77.214 21.2487C76.864 21.0657 76.488 20.9457 76.119 20.8527C76.053 20.8367 75.993 20.7917 75.928 20.7627C75.847 20.7247 75.766 20.6797 75.68 20.6727C74.799 20.5377 73.883 20.5407 73.125 20.9857C73.044 21.0457 72.758 21.1137 72.486 21.2557C72.207 21.3827 71.94 21.5657 71.86 21.6607C71.778 21.7617 71.22 21.8957 71.185 22.0477" fill="#202020"/>
<path fill-rule="evenodd" clip-rule="evenodd" d="M70.62 52.7796C67.569 52.9376 64.52 53.0026 61.474 53.0026C60.362 53.0106 59.252 53.0416 58.142 53.0276C54.227 52.9406 50.319 52.7416 46.419 52.4296C44.687 52.2876 42.949 52.1456 41.23 52.0046C39.036 51.7396 36.788 51.5406 34.68 50.7146C34.023 50.4656 34.165 50.3446 34.783 50.2666C35.393 50.2316 36.502 50.0156 37.738 50.1766C42.15 50.6026 46.605 50.9656 51.114 51.2616C53.811 51.4486 56.628 51.3756 59.391 51.3456C62.431 51.3156 65.472 51.2336 68.508 51.0726C70.377 50.9806 72.244 50.8386 74.104 50.6666C76.919 50.3866 79.749 50.0506 82.483 49.4526C84.605 48.9926 86.641 48.3126 88.551 47.4836C88.957 47.2796 89.367 47.0896 89.774 46.9006C91.281 46.1766 91.718 45.9826 92.264 45.9886C92.388 45.9916 92.533 45.9696 92.631 45.9876C92.798 46.0186 92.794 46.1946 92.634 46.5326C92.552 46.6966 92.438 46.9196 92.267 47.1436C92.088 47.3496 91.872 47.5936 91.603 47.8426C91.191 48.1756 90.757 48.4766 90.314 48.7736C89.864 49.0316 89.392 49.2856 88.917 49.4966C87.965 49.9316 86.982 50.2896 85.979 50.5846C83.975 51.1796 81.917 51.5646 79.856 51.8896C76.791 52.3606 73.704 52.6256 70.627 52.8246L70.62 52.7796Z" fill="#202020"/>
<path fill-rule="evenodd" clip-rule="evenodd" d="M64.7582 81.1673C65.2912 82.2113 65.8462 83.2483 66.4062 84.2813C67.0082 85.2923 67.5732 86.3273 68.2122 87.3173L69.6462 89.4613C71.3292 91.9843 73.0732 94.4833 74.9892 96.8533C75.8412 97.9023 76.7482 98.9163 77.6782 99.8813C78.8742 101.123 80.1332 102.301 81.2612 103.612C81.6112 104.023 81.3492 104.204 80.7982 104.122C80.2522 104.036 79.3832 103.711 78.6352 103.03C76.0242 100.579 73.6412 97.8953 71.5292 94.9733C70.2792 93.2183 68.8602 91.4833 67.6402 89.6463C66.9732 88.6343 66.2992 87.6283 65.6902 86.5803L64.7542 85.0223L63.8792 83.4293C63.1342 82.1373 62.5202 80.7723 61.8392 79.4493C61.3832 78.4153 60.9122 77.3853 60.4752 76.3433C60.0812 75.2843 59.6292 74.2493 59.2582 73.1893C58.9752 72.3643 58.6672 71.5563 58.3522 70.7493C58.0902 69.9253 57.8112 69.1053 57.5682 68.2713C57.4492 67.9063 57.3482 67.5453 57.2792 67.1643C57.0492 65.7463 57.1982 65.2593 57.5082 64.9053C57.5832 64.8243 57.6522 64.7223 57.7282 64.6703C57.9792 64.4983 58.3402 65.0223 58.7562 65.9683C59.2502 67.3943 59.7712 68.8333 60.2292 70.3093C60.7712 71.7643 61.2802 73.2443 61.8862 74.7043C62.7312 76.8883 63.7312 79.0333 64.7982 81.1423L64.7582 81.1673Z" fill="#E14646"/>
<path fill-rule="evenodd" clip-rule="evenodd" d="M84.7963 77.9544C85.3173 78.8724 85.8333 79.7954 86.4033 80.6894C86.9493 81.5974 87.5263 82.4884 88.1243 83.3674C88.5483 84.0164 89.0343 84.6214 89.4833 85.2534C91.0463 87.4964 92.6463 89.7314 94.3673 91.8734C95.1213 92.8314 95.9423 93.7434 96.7523 94.6424C97.8113 95.7824 98.9053 96.8954 99.8383 98.1514C100.129 98.5434 99.8583 98.7104 99.3423 98.6294C98.8293 98.5464 98.0533 98.2304 97.4043 97.6004C95.1573 95.3214 93.0423 92.9064 91.1353 90.2894C89.9923 88.7304 88.6893 87.1954 87.5323 85.5874C86.2683 83.8154 85.0643 81.9964 83.9353 80.1314C83.2423 78.9814 82.5713 77.8194 81.9423 76.6334C80.9643 74.8504 80.1243 72.9834 79.3063 71.1334C78.7123 69.6774 78.0353 68.2754 77.5643 66.7704C77.4593 66.4404 77.3153 66.1294 77.2513 65.7824C77.0153 64.5004 77.1623 64.0514 77.4703 63.7214C77.5453 63.6454 77.6133 63.5514 77.6893 63.5024C77.9393 63.3384 78.3003 63.7994 78.7163 64.6284C79.7563 67.1184 80.6763 69.7304 81.9073 72.2914C82.3583 73.2414 82.8203 74.1914 83.2963 75.1374C83.8133 76.0644 84.2733 77.0224 84.8353 77.9284L84.7963 77.9544Z" fill="#E14646"/>
<path fill-rule="evenodd" clip-rule="evenodd" d="M78.0238 75.5325C75.8068 75.7375 73.5888 75.8665 71.3718 75.9485C70.5638 75.9775 69.7568 76.0525 68.9488 76.0575C66.0968 76.0875 63.2478 75.9895 60.4078 75.8025C59.1468 75.7195 57.8828 75.6365 56.6318 75.5545C55.0268 75.4525 53.4118 75.3015 51.8428 74.9005C51.3528 74.7795 51.4588 74.5345 51.9148 74.3135C52.3708 74.0935 53.1728 73.8775 54.0868 73.8995C57.3148 74.0865 60.5328 74.1955 63.7978 74.4245C65.7528 74.5525 67.7888 74.4195 69.7858 74.3325C71.9838 74.2415 74.1818 74.1045 76.3738 73.8935C77.7208 73.7545 79.0698 73.6145 80.4078 73.4115C82.4358 73.1185 84.4738 72.7865 86.4308 72.2565C87.9488 71.8435 89.3928 71.2705 90.7498 70.6175C91.0368 70.4635 91.3198 70.3125 91.6078 70.1575C92.6588 69.5995 92.9228 69.4795 93.4148 69.5745C93.5288 69.5955 93.6608 69.5935 93.7638 69.6215C94.1228 69.6655 93.9908 70.4345 93.1568 71.1605C91.9618 72.2395 90.5328 72.7985 89.1138 73.3455C87.6778 73.8535 86.1988 74.2305 84.7118 74.5495C82.5028 75.0175 80.2668 75.3395 78.0328 75.5775L78.0238 75.5325Z" fill="#E14646"/>
<path fill-rule="evenodd" clip-rule="evenodd" d="M85.891 92.0965C83.96 92.2895 82.03 92.4255 80.101 92.5325C79.397 92.5735 78.697 92.6555 77.993 92.6765C75.51 92.7535 73.027 92.7385 70.547 92.6545C69.444 92.6195 68.341 92.5845 67.247 92.5495C65.843 92.5205 64.422 92.4135 63.046 92.0455C62.617 91.9315 62.719 91.6865 63.121 91.4585C63.522 91.2415 64.217 90.9915 65.004 90.9935C67.8 91.0545 70.603 91.0345 73.453 91.1655C75.16 91.2355 76.929 91.0545 78.667 90.9385C80.58 90.8145 82.495 90.6625 84.402 90.4545C85.576 90.3295 86.747 90.1815 87.912 90.0045C89.676 89.7355 91.45 89.4385 93.145 88.9595C94.455 88.5835 95.709 88.0555 96.814 87.4305C97.07 87.3025 97.249 87.1195 97.493 87.0005C97.876 86.7355 98.081 86.5835 98.23 86.5075C98.296 86.4695 98.382 86.4445 98.482 86.4205C98.561 86.3975 98.652 86.3725 98.761 86.3415C98.866 86.3105 98.974 86.2435 99.075 86.2045C99.243 86.1385 99.393 86.2085 99.479 86.5415C99.578 86.8675 99.419 87.3925 99.089 87.8215C98.596 88.4375 98.014 88.9005 97.413 89.2205C96.812 89.5715 96.196 89.8465 95.568 90.0935C94.31 90.5705 93.018 90.9105 91.72 91.2015C89.792 91.6265 87.844 91.9125 85.9 92.1405L85.891 92.0965Z" fill="#E14646"/>
</svg>
