<svg width="148" height="148" viewBox="0 0 148 148" fill="none" xmlns="http://www.w3.org/2000/svg">
<path fill-rule="evenodd" clip-rule="evenodd" d="M30.6129 91.6915C30.6959 86.8015 30.7519 81.9615 30.6959 77.0825L30.5809 71.7545C30.5139 65.4905 30.4209 59.2255 30.1959 52.9675C30.0949 50.1915 29.9219 47.4025 29.6929 44.6595C29.3669 41.1405 29.0719 37.5915 28.7929 34.1285C28.7279 33.0465 28.9989 33.0985 29.5659 33.9455C30.1979 34.7875 30.9279 36.4795 31.2029 38.5245C31.7549 42.1485 31.9089 45.7845 32.0919 49.4165C32.2539 53.0515 32.3399 56.6925 32.3479 60.3505C32.3629 64.7245 32.6069 69.2685 32.6859 73.7395C32.7679 78.6535 32.8179 83.5785 32.7579 88.4995C32.7319 91.5225 32.7009 94.5445 32.7259 97.5595C32.7719 102.127 32.8499 106.717 33.2249 111.23C33.5099 114.738 34.0309 118.151 34.6219 121.57C34.7609 122.321 34.8969 123.057 35.0369 123.815C35.5239 126.626 35.5709 127.538 35.0519 128.261C34.9359 128.425 34.8289 128.634 34.7019 128.741C34.2749 129.104 33.6669 128.023 33.1669 125.955C31.7169 119.817 31.0209 113.169 30.7399 106.521C30.5169 101.58 30.5509 96.6265 30.5599 91.6975L30.6129 91.6915Z" fill="#221F1F"/>
<path fill-rule="evenodd" clip-rule="evenodd" d="M58.4738 115.681C63.3648 115.93 68.2688 116.033 73.1718 115.978C74.9628 115.979 76.7468 115.843 78.5348 115.814C84.8368 115.647 91.1408 115.273 97.4068 114.547C100.186 114.222 102.967 113.785 105.695 113.283C107.443 112.933 109.196 112.593 110.932 112.182C112.684 111.845 114.432 111.498 116.195 111.194C117.297 111.014 117.232 111.325 116.41 111.909C115.583 112.467 114.023 113.466 112.011 114.019C108.43 114.943 104.792 115.561 101.146 116.139C97.4878 116.622 93.8128 117.025 90.1098 117.221C85.6858 117.487 81.0958 117.898 76.5668 118.035C71.5908 118.194 66.6088 118.197 61.6328 118.07C58.5698 117.974 55.5078 117.844 52.4518 117.655C47.8348 117.323 43.1958 116.989 38.6128 116.659C35.0478 116.412 31.5398 116.268 28.0068 115.987C27.2288 115.921 26.4648 115.887 25.6818 115.8C22.7808 115.487 21.8838 115.176 21.3618 114.422C21.2428 114.25 21.0798 114.072 21.0208 113.908C20.8228 113.347 22.0508 113.102 24.1638 113.234C30.4338 113.63 37.0108 114.156 43.6588 114.646C48.6078 115.012 53.5348 115.437 58.4698 115.623L58.4738 115.681Z" fill="#221F1F"/>
<path fill-rule="evenodd" clip-rule="evenodd" d="M43.8097 86.3918C43.7757 89.1128 43.7797 91.8388 43.8247 94.5628L43.9347 97.5408C44.0207 101.037 44.0747 104.56 44.4247 107.999C44.4677 108.363 44.5177 108.726 44.5837 109.069C44.6087 109.192 44.6217 109.257 44.6517 109.351C44.6767 109.435 44.7197 109.533 44.8207 109.538C44.9147 109.572 45.0137 109.574 45.1127 109.584C45.2387 109.586 45.4577 109.603 45.6397 109.594C46.0177 109.595 46.4087 109.576 46.7967 109.548C47.7617 109.476 48.7357 109.336 49.7077 109.201C50.6747 109.043 51.6707 108.998 52.6317 108.891C53.2027 108.83 53.2537 109.138 52.8127 109.615C52.3697 110.065 51.4807 110.722 50.3337 110.969C49.3677 111.145 48.3977 111.295 47.4047 111.4C46.9057 111.449 46.4047 111.491 45.8787 111.504C45.6147 111.51 45.3507 111.501 45.0597 111.476C44.8787 111.478 44.6207 111.424 44.4067 111.366C44.1837 111.312 43.9577 111.265 43.7447 111.181C42.8527 110.772 42.7697 109.233 42.7037 108.916C42.6297 108.35 42.5837 107.802 42.5457 107.254C42.4737 106.16 42.4407 105.076 42.4307 103.99C42.4077 101.524 42.2087 98.9788 42.1527 96.4698C42.0917 93.7108 42.0787 90.9518 42.0917 88.1928L42.1597 83.0988C42.1857 81.8108 42.2287 80.5218 42.3007 79.2308C42.3367 78.5848 42.3777 77.9388 42.4407 77.2878C42.4767 76.9548 42.4957 76.6798 42.5927 76.1818C42.6777 75.7508 42.8167 75.2788 43.2597 75.2068C43.5687 75.1408 43.9507 75.1628 44.2757 75.1888L45.0477 75.2558L46.5077 75.3798C47.4727 75.4508 48.4327 75.4688 49.3697 75.4328C49.7827 75.4138 50.1817 75.3818 50.5787 75.3378C52.0527 75.1728 52.3397 75.0598 52.8467 75.2108C52.9557 75.2378 53.0927 75.2398 53.1917 75.2728C53.3577 75.3238 53.3747 75.5208 53.1597 75.8348C52.9457 76.1458 52.4707 76.4938 51.8317 76.7138C49.9247 77.3398 48.0317 77.1478 46.1877 77.0168L44.8167 76.8988L44.2037 76.8488C44.1417 76.8458 44.1747 76.8508 44.1627 76.8528C44.1577 76.8728 44.1697 76.8328 44.1617 76.8988C44.1097 77.3128 44.0767 77.7608 44.0477 78.2068C43.8927 80.8828 43.8577 83.6478 43.8527 86.3878L43.8097 86.3918Z" fill="#221F1F"/>
<path fill-rule="evenodd" clip-rule="evenodd" d="M53.1973 91.3819L53.0893 95.0799C53.0793 95.5289 53.1203 95.9779 53.1083 96.4269C53.0633 98.0129 53.0053 99.5999 52.9873 101.186C52.9743 101.889 53.0083 102.595 53.0533 103.291L53.1553 104.63C53.1633 105.066 53.1263 105.555 53.0623 105.938C53.0503 105.984 53.0223 106.024 52.9843 106.058C52.9643 106.076 52.9433 106.091 52.9193 106.105L52.9003 106.114L52.7763 106.157C52.7143 106.179 52.6933 106.186 52.7133 106.179C52.8393 106.137 52.7863 106.15 52.7503 106.153C52.7183 106.155 52.6833 106.153 52.6473 106.147C52.5743 106.134 52.4943 106.103 52.4083 106.046C52.0743 105.802 51.6733 105.395 51.5643 104.874C51.3903 103.033 51.3373 101.202 51.5003 99.3449C51.5923 98.2359 51.4823 97.0879 51.4793 95.9559L51.5103 92.2209L51.5393 89.9229C51.5463 88.7629 51.5823 87.5969 51.5513 86.4449C51.5293 85.5489 51.3993 84.6719 51.3363 83.7769C51.3213 83.5799 51.2903 83.3869 51.2843 83.1889C51.2733 82.4469 51.4073 82.2119 51.8903 82.0819C52.0013 82.0519 52.1123 82.0109 52.2213 81.9969C52.5943 81.9509 52.8883 82.2609 52.9723 82.7829C53.2373 84.3399 53.2733 85.9929 53.2753 87.6569C53.2633 88.8939 53.2513 90.1379 53.2393 91.3799L53.1973 91.3819Z" fill="#221F1F"/>
<path fill-rule="evenodd" clip-rule="evenodd" d="M65.9899 78.9708C65.9949 82.1848 66.0229 85.4008 66.0839 88.6158L66.2069 92.1318C66.2959 96.2628 66.3719 100.401 66.6119 104.516C66.6679 105.427 66.7429 106.341 66.8529 107.237L66.9449 107.903L66.9979 108.228L67.0339 108.406C67.0699 108.5 67.0659 108.64 67.1739 108.677C67.2759 108.713 67.3849 108.716 67.4879 108.724C67.5269 108.719 67.6589 108.734 67.8049 108.729L68.2189 108.723L69.0649 108.669C69.6339 108.624 70.2069 108.557 70.7799 108.49C71.9219 108.331 73.0919 108.271 74.2279 108.139C74.8999 108.059 74.9409 108.37 74.4019 108.865C73.8609 109.331 72.7969 110.008 71.4349 110.261C70.2189 110.447 69.0229 110.614 67.6889 110.626L67.3859 110.616C67.2319 110.61 67.0799 110.601 66.9359 110.581C66.6609 110.512 66.3639 110.469 66.1199 110.352C66.0189 110.267 65.8519 110.257 65.8069 110.111C65.7109 110.013 65.6009 109.938 65.5249 109.828C65.3769 109.605 65.2869 109.326 65.2179 109.044L65.1319 108.609L65.0959 108.356L65.0369 107.882L64.9469 106.958C64.7529 104.521 64.6999 102.119 64.6929 99.6958C64.6889 96.8018 64.4869 93.8028 64.4209 90.8488C64.3479 87.6028 64.3149 84.3548 64.2959 81.1068L64.2849 75.1108C64.2949 72.0818 64.3259 69.0458 64.4379 66.0208C64.4819 65.4078 64.4489 64.9388 64.6189 64.0198C64.6659 63.8228 64.7209 63.6348 64.8279 63.4848C64.9779 63.3648 65.1279 63.2748 65.3229 63.2518C65.6799 63.1908 66.2139 63.2628 66.5189 63.2888C67.6789 63.4058 68.8049 63.5088 69.9239 63.5398C70.4149 63.5508 70.8899 63.5458 71.3679 63.5278C73.1519 63.4508 73.4689 63.2808 74.0219 63.4028C74.1449 63.4238 74.2889 63.4018 74.3979 63.4238C74.5739 63.4478 74.5989 63.6768 74.3299 64.0338C74.0629 64.3918 73.4739 64.7648 72.7139 64.9638C70.4739 65.5198 68.2149 65.1158 66.1889 64.9238C66.1589 64.0708 66.0339 67.3028 66.0259 69.2558C65.9939 72.4738 65.9949 75.7238 66.0329 78.9658L65.9899 78.9708Z" fill="#221F1F"/>
<path fill-rule="evenodd" clip-rule="evenodd" d="M74.8019 84.735L74.7279 89.975C74.7239 90.613 74.7689 91.249 74.7599 91.886C74.7319 94.131 74.7029 96.381 74.6749 98.626C74.6679 99.622 74.7049 100.624 74.7549 101.61L74.8649 103.513C74.8749 104.134 74.8409 104.816 74.7769 105.383C74.7659 105.455 74.7369 105.514 74.6979 105.561C74.6569 105.608 74.6549 105.627 74.4109 105.704L74.5339 105.662L74.5109 105.665L74.4649 105.666C74.4319 105.665 74.3979 105.657 74.3619 105.644C74.2889 105.617 74.2079 105.566 74.1219 105.481C73.7879 105.13 73.3849 104.544 73.2739 103.806C73.0919 101.208 73.0259 98.615 73.1749 95.991C73.2589 94.423 73.1379 92.797 73.1269 91.195L73.1239 85.912L73.1289 82.66C73.1219 81.019 73.1459 79.369 73.0999 77.74C73.0619 76.473 72.9299 75.232 72.8479 73.974C72.8319 73.696 72.7999 73.424 72.7929 73.144C72.7619 72.11 72.9159 71.754 73.3949 71.563C73.5049 71.518 73.6159 71.457 73.7259 71.434C74.0999 71.36 74.3909 71.791 74.4729 72.521C74.7519 74.733 74.8189 77.089 74.8399 79.45C74.8409 81.206 74.8429 82.971 74.8439 84.732L74.8019 84.735Z" fill="#221F1F"/>
<path fill-rule="evenodd" clip-rule="evenodd" d="M88.4392 70.1143C88.4592 74.0033 88.5112 77.8933 88.5992 81.7833L88.7532 86.0373C88.8762 91.0383 89.0012 96.0413 89.2542 101.032C89.3682 103.241 89.5582 105.482 89.8332 107.616C89.8702 107.875 89.8802 107.906 89.9062 108.016C89.9272 108.108 89.9542 108.222 90.0712 108.223C90.1392 108.235 90.2052 108.239 90.2702 108.244L90.5342 108.247C90.8122 108.247 91.0962 108.239 91.3852 108.221C91.9622 108.185 92.5462 108.135 93.1332 108.073C94.3042 107.96 95.4942 107.868 96.6582 107.732C97.4732 107.621 97.4972 107.938 96.8272 108.459C96.1542 108.942 94.8502 109.657 93.1892 109.912C92.6032 109.991 92.0122 110.055 91.4022 110.096C91.1002 110.118 90.7832 110.127 90.4622 110.131C90.3592 110.126 89.9442 110.122 89.6972 110.082C89.4282 110.02 89.1642 109.955 88.9032 109.871C88.8072 109.789 88.6702 109.752 88.6082 109.633C88.5052 109.55 88.4072 109.47 88.3482 109.352C88.2142 109.13 88.1432 108.852 88.0792 108.576L87.9952 108.153L87.9552 107.903L87.8892 107.45C87.8102 106.853 87.7392 106.268 87.6992 105.681C87.6072 104.51 87.5422 103.344 87.4872 102.177C87.3792 99.8453 87.3242 97.5113 87.3052 95.1683C87.2782 91.6723 87.0472 88.0453 86.9552 84.4743C86.8542 80.5493 86.7932 76.6213 86.7562 72.6933C86.7442 70.2753 86.7322 67.8563 86.7212 65.4413C86.7212 61.7793 86.7642 58.1023 86.8912 54.4553C86.9242 53.5723 86.9602 52.6963 87.0312 51.8133L87.0932 51.1473L87.1362 50.8103C87.1572 50.6523 87.1902 50.4923 87.2212 50.3353C87.2872 50.0193 87.3922 49.7213 87.5632 49.4903C87.7432 49.2163 88.0352 49.2143 88.3322 49.2173C89.2532 49.3533 89.6222 49.4023 90.1662 49.4643C90.6822 49.5223 91.1962 49.5703 91.7102 49.6053C92.3072 49.6443 92.8892 49.6643 93.4792 49.6713C94.5732 49.6783 95.2452 49.6303 95.6852 49.5823C96.1212 49.5273 96.3352 49.5263 96.6232 49.5033C96.7572 49.4953 96.8962 49.4103 97.0092 49.3753C97.1052 49.3483 97.1692 49.3803 97.1912 49.5043C97.2162 49.6273 97.1812 49.8533 97.0142 50.0963C96.6802 50.6143 95.9052 50.9893 95.0012 51.1633C93.8602 51.3823 92.7442 51.3653 91.6312 51.3103C91.0762 51.2723 90.5222 51.2153 89.9682 51.1453C89.4882 51.0893 88.6122 50.9413 88.8012 50.9903C88.7722 50.9833 88.7642 51.0213 88.7692 51.0463C88.7652 51.0823 88.7802 51.0143 88.7642 51.1313L88.7082 51.6483C88.6422 52.3553 88.6082 53.0943 88.5762 53.8373C88.5132 55.3253 88.4842 56.8403 88.4652 58.3573C88.4222 62.2553 88.4282 66.1863 88.4822 70.1093L88.4392 70.1143Z" fill="#221F1F"/>
<path fill-rule="evenodd" clip-rule="evenodd" d="M97.419 75.8292L97.333 83.2202L97.359 85.9142C97.324 89.0822 97.289 92.2522 97.253 95.4172C97.242 96.8232 97.276 98.2352 97.322 99.6282C97.357 100.522 97.391 101.42 97.425 102.316C97.432 103.198 97.395 104.143 97.329 104.967C97.318 105.078 97.288 105.163 97.249 105.228C97.23 105.26 97.208 105.287 97.184 105.307L97.146 105.332C97.186 105.321 96.986 105.387 96.968 105.393C96.921 105.41 96.92 105.41 96.967 105.394C97.176 105.324 97.047 105.364 97.062 105.354C97.046 105.355 97.031 105.353 97.015 105.35C96.983 105.343 96.948 105.328 96.912 105.305C96.839 105.259 96.758 105.18 96.672 105.058C96.34 104.56 95.94 103.72 95.832 102.681C95.66 99.0192 95.603 95.3632 95.761 91.6692C95.851 89.4612 95.735 87.1662 95.728 84.9092L95.738 77.4612L95.75 72.8782C95.745 70.5642 95.772 68.2402 95.724 65.9432C95.689 64.1582 95.554 62.4082 95.471 60.6412C95.451 60.2522 95.422 59.8692 95.415 59.4752C95.384 58.0222 95.533 57.5282 96.018 57.2432C96.128 57.1772 96.24 57.0892 96.35 57.0542C96.727 56.9432 97.007 57.5342 97.095 58.5762C97.38 61.7122 97.442 65.0372 97.464 68.3722C97.463 70.8502 97.462 73.3412 97.461 75.8262L97.419 75.8292Z" fill="#221F1F"/>
<path fill-rule="evenodd" clip-rule="evenodd" d="M42.6969 97.1451L42.7959 94.5441L42.9469 91.9411C42.9769 91.3071 42.8989 90.6791 42.9399 90.0461C43.0799 87.8121 43.2519 85.5761 43.3199 83.3451C43.3429 82.3551 43.2859 81.3641 43.2529 80.3851C43.2069 79.1281 42.9729 77.8761 43.3759 76.5971C43.4869 76.1991 43.9479 76.2191 44.5159 76.5151C44.8009 76.6641 45.1209 76.8801 45.4189 77.1501C45.7329 77.4191 45.9629 77.7411 46.0179 78.1031C46.2419 79.3861 46.4689 80.6641 46.5399 81.9541C46.5759 83.2451 46.5419 84.5411 46.4099 85.8481C46.2479 87.4111 46.5159 89.0171 46.5589 90.6051C46.5969 92.3521 46.6199 94.1001 46.5709 95.8511L46.5239 99.0821C46.5249 100.712 46.4669 102.351 46.5749 103.966C46.6529 105.222 46.9899 106.446 47.1549 107.694C47.1899 107.969 47.2589 108.237 47.2709 108.515C47.3249 109.028 47.1339 109.378 46.9519 109.618C46.7469 109.859 46.4469 109.998 46.0009 110.109C45.7979 110.16 45.5999 110.226 45.4039 110.255C44.7499 110.352 44.1579 109.937 43.7659 109.21C43.2739 108.124 43.0399 107.003 42.8989 105.859C42.7539 104.716 42.6899 103.551 42.6479 102.382C42.5849 100.646 42.6179 98.8961 42.5999 97.1511L42.6969 97.1451Z" fill="#221F1F"/>
<path fill-rule="evenodd" clip-rule="evenodd" d="M65.0982 92.0645L65.1872 88.6435L65.3242 85.2215C65.3522 84.3885 65.2842 83.5595 65.3202 82.7275C65.4472 79.7935 65.6032 76.8575 65.6632 73.9255C65.6862 72.6245 65.6322 71.3195 65.6042 70.0305C65.5602 68.3765 65.3562 66.7185 65.6912 65.0615C65.7832 64.5445 66.1902 64.5815 66.6972 64.9895C66.9522 65.1935 67.2392 65.4925 67.5052 65.8605C67.7832 66.2255 67.9902 66.6585 68.0402 67.1375C68.2442 68.8325 68.4452 70.5205 68.5082 72.2175C68.5372 73.9155 68.5082 75.6185 68.3892 77.3305C68.2452 79.3785 68.4782 81.4985 68.5152 83.5865C68.5462 85.8835 68.5632 88.1825 68.5192 90.4815L68.4752 94.7255C68.4752 96.8665 68.4242 99.0205 68.5242 101.143C68.5932 102.794 68.8942 104.408 69.0472 106.042C69.0772 106.402 69.1392 106.754 69.1512 107.118C69.2002 107.791 69.0392 108.241 68.8762 108.558C68.6952 108.873 68.4312 109.055 68.0382 109.2C67.8592 109.267 67.6842 109.354 67.5112 109.392C66.9352 109.52 66.4112 108.974 66.0632 108.009C65.2072 105.12 65.1622 102.048 65.0542 98.9645C64.9982 96.6735 65.0262 94.3685 65.0122 92.0695L65.0982 92.0645Z" fill="#221F1F"/>
<path fill-rule="evenodd" clip-rule="evenodd" d="M87.509 86.2296L87.605 81.7576L87.749 77.2856C87.779 76.1976 87.713 75.1116 87.751 74.0246C87.884 70.1916 88.047 66.3566 88.115 62.5246C88.14 60.8246 88.09 59.1166 88.064 57.4316C88.023 55.2696 87.824 53.0916 88.152 50.9376C88.24 50.2676 88.648 50.3206 89.158 50.8676C89.413 51.1386 89.708 51.5446 89.97 52.0266C90.248 52.5086 90.455 53.0806 90.507 53.7076C90.706 55.9226 90.905 58.1326 90.964 60.3506C90.989 62.5696 90.956 64.7936 90.833 67.0286C90.684 69.7016 90.912 72.4756 90.944 75.2066C90.97 78.2086 90.982 81.2116 90.933 84.2156L90.882 89.7616C90.879 92.5596 90.824 95.3726 90.922 98.1486C90.989 100.308 91.291 102.42 91.444 104.554C91.476 105.023 91.538 105.484 91.55 105.959C91.555 107.717 91.201 108.293 90.44 108.67C90.261 108.756 90.087 108.87 89.914 108.919C89.337 109.086 88.815 108.376 88.463 107.103C87.601 103.309 87.559 99.2886 87.454 95.2526C87.401 92.2546 87.433 89.2416 87.423 86.2346L87.509 86.2296Z" fill="#221F1F"/>
<path fill-rule="evenodd" clip-rule="evenodd" d="M122.431 109.233C122.476 109.216 122.532 109.188 122.595 109.146C122.626 109.125 122.66 109.101 122.694 109.072C122.745 109.035 122.745 109.02 122.715 109.014L122.548 108.926L122.429 108.868C122.463 108.872 122.116 108.762 121.938 108.703C121.333 108.512 120.715 108.358 120.117 108.143C118.014 107.371 115.976 106.466 113.943 105.552C113.032 105.158 112.12 104.764 111.217 104.373C110.057 103.852 108.873 103.344 107.909 102.271C107.612 101.917 107.969 101.737 108.468 101.648C108.948 101.566 109.607 101.49 110.226 101.756C112.43 102.693 114.725 103.757 117.026 104.83C118.402 105.49 119.938 105.899 121.408 106.379C121.704 106.48 122.003 106.574 122.304 106.663L122.754 106.8C122.841 106.825 122.875 106.842 123.007 106.874L123.392 106.967C123.92 107.083 124.376 107.233 124.94 107.318L126.536 107.587L126.484 107.863L126.18 108.277C125.977 108.56 125.78 108.796 125.582 109.054C125.339 109.346 125.092 109.636 124.827 109.919L123.955 110.745C123.45 111.178 123.091 111.462 122.649 111.816C121.366 112.827 120.035 113.756 118.783 114.751C117.802 115.515 116.924 116.368 116.01 117.184C115.809 117.364 115.627 117.557 115.418 117.73C114.643 118.37 114.304 118.452 113.768 118.129C113.647 118.056 113.513 117.993 113.408 117.907C113.05 117.617 113.14 117.068 113.638 116.493C115.129 114.809 116.91 113.288 118.774 111.928L120.829 110.409L121.827 109.644L122.307 109.254C122.39 109.186 122.352 109.228 122.379 109.207L122.431 109.233Z" fill="#221F1F"/>
<path fill-rule="evenodd" clip-rule="evenodd" d="M81.2008 46.0553C77.9348 47.7833 74.5438 49.2493 71.0918 50.5123C69.8248 50.9543 68.5848 51.4643 67.3158 51.8913C62.7878 53.2483 58.1958 54.3193 53.5538 55.0453L50.4548 55.4913C49.4218 55.6313 48.3828 55.7203 47.3538 55.8233C46.0298 55.9303 44.6978 56.0123 43.3638 56.0243C42.0268 56.0243 40.6938 55.9943 39.3518 55.6973C38.5128 55.4963 38.6958 55.3823 39.4068 55.2813C39.7548 55.2463 40.2468 55.1503 40.8408 55.0453C41.4268 54.9733 42.1148 54.8723 42.8618 54.8193C44.1808 54.7663 45.5068 54.5573 46.8238 54.4253L48.7968 54.1283C49.4568 54.0513 50.1168 53.9713 50.7728 53.8503C53.4048 53.4493 56.0278 52.9423 58.6548 52.3773C61.7968 51.6923 64.9708 50.5953 68.0388 49.4283C69.7138 48.7523 71.4318 48.1793 73.0558 47.3813C74.6868 46.6063 76.3818 45.9563 77.9538 45.0613L80.9078 43.5033C81.9078 43.0083 82.8128 42.3523 83.7668 41.7813C86.6748 40.0673 89.3828 38.0133 92.0048 35.9363C92.9708 35.0623 93.8998 34.1663 94.8158 33.2673L96.1908 31.9263C96.6518 31.4833 97.0488 30.9723 97.4848 30.5033C97.8618 30.0813 98.2118 29.6513 98.6008 29.2373C100.045 27.7013 100.644 27.3473 101.48 27.4843C101.671 27.5163 101.884 27.5223 102.045 27.5843C102.589 27.7933 102.311 28.7203 101.328 29.9803C99.8538 31.8273 98.3528 33.7763 96.4848 35.3973C95.5748 36.2323 94.6468 37.0623 93.7078 37.8883C92.7588 38.7003 91.7148 39.4023 90.7138 40.1593L88.4498 41.8053C87.6888 42.3473 86.8678 42.7983 86.0778 43.2973C84.4728 44.2553 82.9178 45.2943 81.2348 46.1063L81.2008 46.0553Z" fill="#DFAC03"/>
<path fill-rule="evenodd" clip-rule="evenodd" d="M105.504 23.567L105.528 23.43L105.552 23.356C105.57 23.296 105.577 23.245 105.59 23.172C105.601 23.091 105.514 23.158 105.46 23.16C105.374 23.193 105.363 23.18 105.178 23.274C104.693 23.537 104.221 23.841 103.712 24.081C101.909 24.919 99.9869 25.518 98.0459 25.815C97.1859 25.955 96.3269 26.096 95.4749 26.2C94.3839 26.359 93.2739 26.434 92.1769 26.273C91.8349 26.223 91.8829 25.908 92.1629 25.57C92.4419 25.234 92.9439 24.857 93.5409 24.774C95.6679 24.482 97.7129 24.123 99.7979 23.687C101.055 23.427 102.237 22.804 103.402 22.197L104.138 21.801L105.228 21.184C105.628 20.956 106.017 20.745 106.396 20.548C106.762 20.367 107.191 20.104 107.507 20L107.377 21.788L107.239 23.816L107.129 25.21C107.009 26.622 106.762 28.043 106.417 29.432C106.143 30.508 105.856 31.586 105.387 32.616C105.291 32.846 105.196 33.072 105.068 33.289C104.612 34.104 104.29 34.245 103.796 34.107C103.681 34.073 103.559 34.05 103.455 34C103.105 33.828 103.057 33.353 103.317 32.811C104.031 31.158 104.663 29.487 104.995 27.629C105.118 26.941 105.229 26.243 105.3 25.525C105.345 25.17 105.369 24.804 105.403 24.443L105.46 23.575L105.504 23.567Z" fill="#DFAC03"/>
</svg>
