<svg width="148" height="148" viewBox="0 0 148 148" fill="none" xmlns="http://www.w3.org/2000/svg">
<path fill-rule="evenodd" clip-rule="evenodd" d="M55.4122 77.7353C54.8512 80.7323 55.8742 84.0283 58.1762 86.0463C58.9952 86.8213 60.0462 87.3043 61.0932 87.7293C62.9682 88.4303 65.0942 88.6633 67.1022 88.2203C69.1072 87.7923 70.9932 86.7673 72.3782 85.2243C73.5922 83.8273 74.4002 82.0643 74.6342 80.2473C74.9502 77.8983 74.3772 75.5533 73.3322 73.5003C73.0072 72.8683 73.5212 72.5243 74.4172 72.7773C75.2992 73.0113 76.5542 74.0513 76.9632 75.7363C77.7002 78.6673 77.2602 81.8323 75.8222 84.4543C75.1182 85.7783 74.1372 86.9143 73.0122 87.9103C71.8282 88.8253 70.5302 89.5873 69.1192 90.0063C65.8032 91.0203 61.9902 91.0053 58.8212 89.3083C57.0982 88.3973 55.5992 87.0223 54.5872 85.3483C53.5872 83.6703 52.9882 81.7883 52.9222 79.8653C52.8042 77.5003 53.4412 75.1573 54.5672 73.1393C56.2872 70.0873 59.2352 67.7063 62.6812 66.9223C65.3372 66.2903 68.2502 66.7213 70.6102 68.1483C71.1102 68.4763 71.6432 68.7623 72.0912 69.1673C73.7942 70.6343 74.0192 71.3823 73.8092 72.1103C73.7582 72.2793 73.7252 72.4713 73.6442 72.6043C73.5072 72.8283 73.2242 72.8363 72.8552 72.6683C72.4872 72.4993 72.0442 72.1433 71.4972 71.6993C71.1162 71.3403 70.6722 71.0693 70.2692 70.7513C69.8282 70.4923 69.4122 70.1933 68.9522 69.9893C68.0552 69.5423 67.1172 69.2053 66.1502 69.0823C64.2252 68.8093 62.2142 69.2703 60.4772 70.3373C57.8902 71.9003 55.9292 74.7103 55.4722 77.7403L55.4122 77.7353Z" fill="#202020"/>
<path fill-rule="evenodd" clip-rule="evenodd" d="M43.9958 77.3959C43.6128 80.4509 43.9778 83.5749 44.9578 86.5039C45.8918 89.4469 47.6018 92.0959 49.8268 94.2299C51.4708 95.7709 53.4008 97.0029 55.4708 97.9199C62.7328 101.253 71.9928 100.489 78.4198 95.4579C81.2678 93.2579 83.4598 90.1879 84.7828 86.8729C86.4968 82.5819 86.7058 77.8299 85.8448 73.3379C85.5548 71.9489 86.1838 71.9009 87.1018 72.9929C87.9838 74.0689 89.0928 76.4669 88.9578 79.4489C88.8018 84.6869 86.8238 89.8489 83.4778 93.8669C80.1518 97.9559 75.3038 100.685 70.2218 101.657C64.1678 102.864 57.4128 102.05 51.9578 98.7529C48.9848 96.9529 46.4038 94.4429 44.6448 91.4339C43.7658 89.9359 43.0318 88.3419 42.5528 86.6849C42.2498 85.8749 42.1228 85.0129 41.9098 84.1789C41.7688 83.3289 41.6308 82.4739 41.5638 81.6159C41.3678 79.4999 41.5418 77.3669 41.9188 75.2929C42.2958 73.2139 42.9588 71.1949 43.8598 69.2959C45.1818 66.3959 47.0838 63.7769 49.3498 61.5519C51.6018 59.3089 54.2958 57.5269 57.2108 56.2969C61.7288 54.3789 66.9118 53.9789 71.6338 55.5499C72.6868 55.8519 73.6538 56.3049 74.6558 56.7619C78.2298 58.7359 78.9668 59.9289 79.2018 60.9129C79.2488 61.1469 79.3408 61.4179 79.3238 61.5969C79.2948 61.8979 78.9108 61.8649 78.2718 61.5569C77.9528 61.4019 77.5698 61.1779 77.1338 60.8889C76.6798 60.6249 76.1518 60.3259 75.5848 59.9579C73.8558 58.9459 72.0238 58.0999 70.0888 57.5799C68.1508 57.0829 66.1378 56.8839 64.1298 57.0259C60.1128 57.3009 56.1498 58.9479 52.9088 61.5559C48.1078 65.4149 44.6688 71.2129 44.0568 77.3949L43.9958 77.3959Z" fill="#202020"/>
<path fill-rule="evenodd" clip-rule="evenodd" d="M32.3595 75.0097C31.6525 79.8297 31.8685 84.8207 33.2885 89.5107C33.9975 91.8587 34.9125 94.1297 36.1225 96.2507C37.3165 98.3797 38.8265 100.322 40.5205 102.078C42.9885 104.664 46.0035 106.681 49.2015 108.272C54.8585 111.097 61.3435 112.225 67.6835 111.768C74.0315 111.31 80.2705 109.085 85.4005 105.294C89.9505 101.927 93.5015 97.2087 95.7185 92.0537C98.6025 85.4027 99.1305 77.8877 97.7555 70.8287C97.2845 68.6427 97.9415 68.7097 99.0135 70.4877C100.04 72.2487 101.339 75.9357 101.061 80.4327C100.881 84.3947 99.9575 88.3017 98.5115 91.9877C97.0195 95.6577 94.9285 99.0837 92.3595 102.094C89.7465 105.089 86.6245 107.645 83.1555 109.566C79.6725 111.455 75.9055 112.825 72.0115 113.474C69.6915 113.903 67.3125 114.098 64.9225 114.101C62.5345 114.105 60.1265 113.927 57.7555 113.482C55.3825 113.049 53.0405 112.409 50.7775 111.546C48.5265 110.656 46.3615 109.549 44.3415 108.231C39.8805 105.352 36.1925 101.296 33.6755 96.6347C31.1455 91.9637 29.8485 86.7247 29.6305 81.4647C29.5385 78.2307 29.7885 74.9687 30.5725 71.8287C31.3325 68.6877 32.4695 65.6487 33.9325 62.7777C36.2105 58.4607 39.2545 54.5477 42.8765 51.2817C46.5445 48.0747 50.7775 45.4957 55.3675 43.9057C58.9355 42.6837 62.6895 42.0477 66.4435 42.1447C70.1955 42.2357 73.9235 43.0617 77.3905 44.5257C77.7735 44.6857 78.1675 44.8167 78.5365 44.9967L79.6345 45.5557C80.3545 45.9487 81.1275 46.2647 81.8125 46.7427C84.4565 48.3677 85.9485 49.7717 86.9935 50.7357C87.9435 51.8027 88.3915 52.5147 88.6345 53.1907C88.7445 53.4987 88.9205 53.8697 88.9375 54.0887C88.9665 54.4597 88.4645 54.2907 87.5645 53.6797C87.1135 53.3737 86.5635 52.9567 85.9275 52.4387C85.2805 51.9327 84.4815 51.4077 83.6355 50.7577C81.0495 48.9477 78.2885 47.2957 75.2615 46.2717C72.2605 45.2047 69.0865 44.5907 65.8715 44.5467C59.4215 44.4047 52.9635 46.7427 47.6125 50.5667C43.5945 53.3797 40.2215 57.1027 37.5745 61.2587C34.9735 65.4447 33.1685 70.1467 32.4205 75.0067L32.3595 75.0097Z" fill="#202020"/>
<path fill-rule="evenodd" clip-rule="evenodd" d="M22.3093 74.4271C21.4943 80.5841 21.8313 86.9401 23.6713 92.9081C24.5823 95.8961 25.7593 98.7861 27.2893 101.498C28.8273 104.204 30.7223 106.698 32.8633 108.957C34.3993 110.637 36.1813 112.07 37.9873 113.448C39.8513 114.752 41.7713 115.985 43.8153 116.995C58.1173 124.379 76.5423 123.601 90.0543 114.538C96.0513 110.553 100.842 104.813 104.058 98.4491C108.169 90.2231 109.56 80.7721 108.429 71.6901C108.024 68.8741 108.688 69.0771 109.707 71.4371C110.194 72.6211 110.7 74.3661 111.022 76.5351C111.297 78.7001 111.427 81.2931 111.072 84.0671C109.876 93.9001 105.449 103.304 98.5923 110.471C95.1813 114.087 91.0713 117.005 86.6623 119.251C82.2403 121.5 77.4333 122.913 72.5563 123.67C69.6293 124.078 66.6493 124.277 63.6523 124.225C60.6553 124.132 57.6513 123.803 54.6833 123.22C48.7683 121.996 42.9843 119.736 37.9913 116.31C35.2453 114.443 32.6883 112.278 30.4563 109.809C28.2323 107.335 26.3123 104.594 24.7373 101.671C21.5733 95.8141 19.9133 89.2531 19.5793 82.6551C19.1383 74.5091 21.0903 66.3641 24.6083 59.0901C27.3523 53.6021 31.0643 48.6021 35.4913 44.3641C39.9453 40.1541 45.1773 36.7841 50.8253 34.4991C55.2323 32.7611 59.8913 31.7371 64.5933 31.5791C69.2933 31.4151 74.0193 32.1361 78.4813 33.6811C78.9753 33.8471 79.4653 34.0121 79.9553 34.1771C80.4433 34.3461 80.9013 34.5851 81.3763 34.7851C82.3113 35.2181 83.2763 35.6021 84.2013 36.0951C90.9983 39.9061 92.5033 42.0621 93.3613 43.5291C93.5463 43.8811 93.8193 44.3081 93.8833 44.5551C93.9893 44.9721 93.3853 44.7521 92.2363 44.0051C91.6623 43.6321 90.9513 43.1261 90.1223 42.5001C89.2553 41.9261 88.2493 41.2591 87.1183 40.5101C83.7123 38.3971 80.0743 36.5381 76.1523 35.4371C72.2443 34.3281 68.1443 33.8181 64.0373 34.0121C59.9313 34.2011 55.8303 35.0821 51.9363 36.5791C48.0503 38.1011 44.3753 40.2151 41.0373 42.7771L40.0993 43.4801C39.7933 43.7231 39.5063 43.9911 39.2093 44.2451L37.4373 45.7881L35.7763 47.4531C35.2153 48.0011 34.6693 48.5641 34.1733 49.1741L32.6373 50.9591C32.1533 51.5771 31.6973 52.2181 31.2243 52.8451C30.2413 54.0751 29.4783 55.4561 28.6083 56.7651C27.0703 59.5011 25.6163 62.3101 24.6233 65.2951C24.0363 66.7571 23.6843 68.2901 23.2503 69.7991C23.0283 70.5531 22.9343 71.3361 22.7683 72.1021C22.6393 72.8751 22.4233 73.6361 22.3703 74.4201L22.3093 74.4271Z" fill="#202020"/>
<path fill-rule="evenodd" clip-rule="evenodd" d="M90.5271 63.6962C88.4141 64.9972 86.3051 66.3112 84.2151 67.6542C83.4531 68.1452 82.7461 68.7122 81.9811 69.1962L73.8741 74.3242C72.6811 75.0922 71.5381 75.9422 70.4181 76.7922C68.9861 77.8872 67.6091 79.0952 65.9911 79.9062C65.5041 80.1482 65.1241 79.5832 65.1031 78.7532C65.0881 77.9232 65.3861 76.8472 66.2021 76.1932C69.1031 73.8892 72.0831 71.7042 75.3401 69.8492C77.2931 68.7482 79.0921 67.2772 80.9811 65.9982C83.0591 64.5932 85.1621 63.2242 87.2621 61.8492L91.1461 59.3232C93.0971 58.0342 95.0981 56.7982 96.9971 55.4602C98.4831 54.4292 99.8341 53.2602 101.278 52.1802C101.596 51.9422 101.883 51.6762 102.22 51.4562C103.481 50.6622 104.013 50.6252 104.734 51.2292C104.899 51.3662 105.081 51.4912 105.219 51.6442C105.682 52.1612 105.464 52.9632 104.686 53.7092C102.36 55.9042 99.6601 57.8342 96.8621 59.6812C94.7731 61.0382 92.6731 62.4032 90.5781 63.7632L90.5271 63.6962Z" fill="#202020"/>
<path fill-rule="evenodd" clip-rule="evenodd" d="M107.953 60.4262C103.819 61.6162 96.0753 57.8352 96.0753 57.8352C96.0753 57.8352 94.6493 48.3332 98.4643 45.1382C99.0023 44.6882 102.906 41.5982 105.461 40.7012C106.446 40.3562 103.935 50.5772 105.165 51.5122C105.165 51.5122 114.235 52.7142 115.796 54.3742L107.953 60.4262Z" fill="#6940A5"/>
<path fill-rule="evenodd" clip-rule="evenodd" d="M103.567 46.724C103.799 45.178 104.182 42.773 104.163 43.095C104.172 43.021 104.211 42.917 104.168 42.848C104.104 42.851 104.035 42.873 103.962 42.897C103.888 42.922 103.809 42.954 103.726 42.992C103.69 43.011 103.72 42.99 103.632 43.039L103.372 43.189L102.853 43.501C101.846 44.123 100.896 44.86 99.9321 45.562L99.3121 46.025C99.1371 46.171 99.0151 46.311 98.8571 46.45C98.6921 46.569 98.5931 46.784 98.4541 46.948C98.3141 47.111 98.2021 47.309 98.1001 47.519C97.6511 48.32 97.3501 49.278 97.1531 50.27C96.7371 52.255 96.6881 54.388 96.8061 56.482L96.8371 56.949L96.8681 57.258L97.1111 57.375L97.4361 57.517C97.7711 57.664 98.1101 57.799 98.4491 57.932C99.1301 58.195 99.8171 58.434 100.505 58.647C102.777 59.32 105.164 59.767 107.27 59.687C107.894 59.644 108.087 60.234 107.525 60.965C106.977 61.705 105.511 62.368 103.97 62.123C102.414 61.894 100.953 61.485 99.5361 60.994C98.8261 60.753 98.1351 60.475 97.4461 60.188L96.4241 59.734L95.5791 59.335L94.6501 58.877C94.5831 58.362 94.5241 57.85 94.4751 57.336L94.4441 56.987L94.4331 56.776L94.4111 56.355C94.3901 55.794 94.3871 55.231 94.3941 54.67C94.4161 53.545 94.5121 52.414 94.6911 51.285C94.9581 49.71 95.2841 48.076 96.0741 46.485C96.4441 45.686 97.0351 44.936 97.7371 44.286C98.3841 43.755 98.9981 43.297 99.6481 42.838C100.358 42.34 101.081 41.859 101.829 41.403L102.396 41.066C102.602 40.95 102.972 40.727 103.252 40.594C103.846 40.296 104.474 39.966 105 39.858C105.26 39.812 105.528 39.755 105.714 39.804C105.818 39.82 105.918 39.814 106.025 39.847C106.143 39.893 106.239 40.008 106.292 40.096C106.526 40.462 106.629 40.955 106.628 41.58C106.625 42.202 106.525 42.884 106.441 43.537L106.244 44.846C106.085 45.878 105.921 46.902 105.797 47.918C105.734 48.425 105.681 48.931 105.65 49.425C105.636 49.652 105.629 49.961 105.629 50.105C105.631 50.238 105.632 50.374 105.658 50.508C105.681 50.654 105.744 50.854 105.929 50.829L107.683 51.141L109.809 51.564C110.516 51.714 111.221 51.879 111.925 52.052C112.657 52.258 113.223 52.361 114.274 52.761L114.878 52.987L115.403 53.267C115.772 53.447 116.059 53.668 116.389 53.887C116.545 54.013 116.728 54.139 116.865 54.266L116.498 54.659L115.759 55.461L114.719 56.321L113.858 57.045L112.482 58.217C112.076 58.56 111.693 58.913 111.276 59.249C109.731 60.494 109.132 60.751 108.403 60.504C108.237 60.448 108.047 60.411 107.913 60.329C107.46 60.053 107.85 59.235 108.911 58.232C109.697 57.489 110.51 56.754 111.343 56.028L112.606 54.943L112.753 54.818L112.761 54.801L112.773 54.77C112.779 54.753 112.782 54.739 112.782 54.727C112.804 54.681 112.686 54.683 112.679 54.69L112.672 54.693C112.672 54.693 112.672 54.694 112.667 54.694C112.667 54.694 112.672 54.697 112.585 54.671C112.335 54.596 112.079 54.524 111.815 54.459C111.296 54.321 110.759 54.199 110.222 54.079C109.403 53.897 108.568 53.737 107.733 53.579L106.473 53.357L105.704 53.231L104.419 53.043C104.299 52.901 104.17 52.803 104.063 52.663C103.935 52.526 103.813 52.389 103.696 52.248C103.518 51.925 103.367 51.576 103.319 51.175C103.237 50.81 103.234 50.328 103.224 50.016C103.223 49.771 103.234 49.544 103.244 49.313C103.297 48.411 103.398 47.56 103.507 46.721L103.567 46.724Z" fill="#6940A5"/>
<path fill-rule="evenodd" clip-rule="evenodd" d="M25.2267 102.1C28.4197 108.215 33.3228 113.423 39.2428 117.077C41.3868 118.444 43.7277 119.457 46.0637 120.445C50.2337 122.087 54.6478 123.138 59.1338 123.574C63.6238 123.967 68.1767 123.735 72.6147 122.87C76.5537 122.102 80.3888 120.709 83.8978 118.849C86.1668 117.672 88.2727 116.212 90.3027 114.675C92.2697 113.058 94.2158 111.406 95.9678 109.548C97.0898 108.428 97.4417 108.962 96.9617 110.391C96.7087 111.093 96.3048 112.08 95.5608 113.059C95.2008 113.559 94.7857 114.086 94.3197 114.623C93.8267 115.129 93.2737 115.637 92.6777 116.14C84.0877 123.154 72.8468 126.558 61.8647 126.011C55.3057 125.673 48.4957 124.308 42.3888 121.441C35.6968 118.298 29.7937 113.413 25.6187 107.315C24.9267 106.411 24.4087 105.392 23.7967 104.437C23.2277 103.456 22.7477 102.424 22.2207 101.421C21.7817 100.377 21.3197 99.3405 20.9137 98.2855C20.5567 97.2125 20.1677 96.1505 19.8387 95.0715C17.9327 88.4935 17.5027 81.4785 18.5757 74.7845C18.9267 72.1695 19.5827 69.6375 20.2867 67.1275C21.1007 64.6545 21.9757 62.1925 23.1587 59.8555C23.6397 58.8055 24.1667 57.8085 24.7557 56.8045C26.9727 53.0985 28.0587 52.1685 29.0947 51.8265C29.3347 51.7505 29.6137 51.6235 29.7997 51.6205C30.1147 51.6145 30.0917 52.0195 29.7807 52.7325C29.4757 53.4525 28.8357 54.4465 28.0827 55.7615C25.7747 59.6055 23.7997 63.7755 22.4677 68.2085C21.1327 72.6365 20.3797 77.2955 20.3657 81.9745C20.3977 88.8965 21.9887 95.9345 25.2757 102.064L25.2267 102.1Z" fill="#202020"/>
<path fill-rule="evenodd" clip-rule="evenodd" d="M64.0744 81.3071C63.2744 81.1841 62.5944 80.3671 62.6214 79.6181C62.6364 78.8771 63.0964 78.4181 63.6024 78.2651C63.9224 78.1511 64.6244 78.5701 64.7064 78.7121C64.7614 78.8711 64.8924 78.9701 64.9884 78.9501C64.9484 78.9521 64.8984 78.9621 64.8574 78.9761C64.8494 78.9761 64.8364 78.9771 64.8214 78.9841C64.7604 79.0151 64.8294 78.9781 64.8164 78.9791C64.8094 78.9841 64.8694 78.9381 64.8834 78.9011C64.9324 78.8401 64.9674 78.7441 64.9784 78.6751C64.9894 78.6061 64.9724 78.6091 64.9884 78.6441C64.9964 78.6751 64.9944 78.6171 64.8294 78.5181C64.7694 78.4761 64.7094 78.4461 64.6514 78.4261C64.6304 78.4221 64.5884 78.4051 64.5374 78.3801L64.5194 78.3661C64.5074 78.3591 64.4864 78.3281 64.4694 78.3141C64.8254 78.3381 65.1624 78.2411 65.2264 78.1841C65.3154 78.1231 65.2534 78.1461 65.2204 78.2581C65.1804 78.3711 65.1764 78.5221 65.1924 78.6711C65.2094 78.8061 65.2494 78.9711 65.3174 79.1241C65.3494 79.2081 65.3944 79.3051 65.4364 79.3681C65.4294 79.3861 65.4154 79.4091 65.4034 79.4241C65.3554 79.4191 65.4784 79.5301 65.2724 79.2811C65.2034 79.1971 65.1244 79.1151 65.0454 79.0391C64.9944 78.9751 64.9374 78.9131 64.8754 78.8561C64.8124 78.7981 64.7424 78.7431 64.6704 78.6941C64.6294 78.6551 64.5814 78.6181 64.5294 78.5851C64.3964 78.5141 64.3524 78.4841 64.2784 78.4601C63.9854 78.4091 64.3714 78.4981 64.7184 78.1821C65.0994 77.9001 65.3364 77.4781 65.3744 77.3681C65.4234 77.2341 65.3484 77.4111 65.3624 77.6471C65.3624 77.8831 65.4564 78.0941 65.4564 78.0791C65.4564 78.0791 65.3174 77.8861 64.8874 77.6731C64.8654 77.6661 64.7264 77.5921 64.7504 77.6041L64.7514 77.5981C64.7554 77.6021 64.7554 77.5771 64.7594 77.5571C64.7714 77.5311 64.7744 77.4571 64.7844 77.3891C64.8034 77.2421 64.7994 77.0211 64.7864 76.7931C64.7374 76.6721 64.7544 76.5031 64.7004 76.4591C64.6324 76.3121 64.6294 76.3141 64.5104 76.2301C64.3944 76.1691 64.1734 76.0541 63.8634 75.9381C63.3174 75.7821 62.5344 75.8591 61.9994 76.1791C61.7254 76.3281 61.5074 76.5191 61.3724 76.7051C61.2034 76.9281 61.0344 77.2471 60.9304 77.5681C60.8624 77.7861 60.7654 78.0151 60.8704 78.2731C60.9434 78.4671 60.8564 79.5501 61.1954 80.4821C61.3714 80.9391 61.5334 81.3221 61.7624 81.6001C61.9824 81.9271 62.1504 82.0671 62.1944 82.1561C62.4314 82.5351 62.7494 82.8231 63.2984 82.9921C63.8374 83.1681 64.5854 83.1641 65.3824 83.0241C65.6094 83.0011 65.8204 82.8421 66.0944 82.9361C66.7384 83.1551 67.2214 82.8371 67.7204 82.5891C68.4374 82.2481 69.1524 81.9091 69.8964 81.5561C70.2664 81.3841 70.7304 81.3281 71.1624 81.2111C71.5574 81.1091 71.7944 81.6831 71.7334 81.8221C71.5564 82.2171 71.9824 82.2351 72.1744 82.3981C72.2394 82.4551 72.3224 82.5291 72.3514 82.5931C72.3814 82.6611 71.6174 83.7771 70.6154 84.8561C69.6474 85.9671 68.2944 86.8741 67.9904 86.9981C67.9414 87.0001 67.4694 87.2811 66.6294 87.5651C65.8164 87.8681 64.6254 88.2001 63.2344 88.2041C61.8644 88.2231 60.2824 87.8361 59.2364 87.1531C58.1724 86.5181 57.5334 85.8541 57.3454 85.6461C56.8994 85.2161 56.5924 84.6341 56.3504 84.0491C56.3244 83.9801 56.0084 83.4881 55.7024 82.7281C55.3974 81.9681 55.1334 80.9431 55.0504 79.9001C54.8254 77.8051 55.5564 75.7011 55.6494 75.5591C56.0124 74.7631 56.4334 73.9771 57.0284 73.2691C57.6994 72.5071 58.5064 71.9141 59.3794 71.6591C59.7154 71.5321 60.0324 71.3981 60.3474 71.2451C61.7184 70.6581 63.2014 70.4691 64.7414 70.7301C65.1274 70.7961 65.5104 70.8741 65.9024 71.0251C66.2884 71.1411 66.6734 71.3351 67.0494 71.5511C67.4264 71.7401 67.7764 72.0641 68.1164 72.3391C68.4264 72.6681 68.7484 73.0091 68.9824 73.3911C69.2104 73.7901 69.4624 74.1931 69.5824 74.6091C69.7374 75.0271 69.8604 75.4451 69.9034 75.8431L69.9894 76.4511C70.0054 76.6411 70.0054 76.8091 70.0114 76.9901C70.0234 77.3421 69.9994 77.7271 69.9464 78.1221C69.9044 78.4111 69.7974 78.6921 69.6794 78.9961C69.5424 79.3701 69.3394 79.7521 69.1044 80.1521C68.8084 80.6691 68.3654 81.1931 67.7914 81.5661C67.2254 81.9441 66.5734 82.1681 65.9524 82.2441C64.6984 82.3771 63.6144 82.0671 62.6164 81.3851C62.1274 81.0231 61.6214 80.5431 61.2684 79.7451C60.8924 78.9691 60.9164 77.7561 61.3494 76.9881C61.7584 76.2081 62.2624 75.8161 62.6994 75.4921C63.0964 75.2101 63.6474 74.9051 64.2834 74.7451C64.5664 74.6701 65.2044 74.5681 66.0414 74.7951C66.8684 74.9921 67.8854 75.7711 68.2444 76.7511C68.6374 77.7301 68.5094 78.5891 68.3454 79.1791C68.1674 79.8061 67.8644 80.3311 67.6544 80.6111C67.4524 80.9451 66.6764 81.4751 65.8714 81.5481C65.0674 81.6491 64.3834 81.3841 64.0744 81.3071" fill="#202020"/>
<path fill-rule="evenodd" clip-rule="evenodd" d="M108.445 30.6932C108.554 30.8532 108.343 30.9862 107.946 31.1052C107.82 31.1422 107.435 31.1362 107.38 31.0902C107.273 31.0022 107.169 30.9122 107.093 30.8212C107.049 30.7652 106.84 29.8852 106.748 29.5862C106.66 29.2972 106.635 29.0072 106.624 28.7172L106.527 26.9502C106.521 26.8192 106.536 26.6882 106.572 26.5582C106.698 26.1102 106.683 25.6612 106.644 25.2122C106.638 25.1372 106.65 25.0612 106.579 24.9892C106.462 24.8702 106.457 23.6522 106.512 23.4952C106.649 23.1042 106.733 22.7122 106.841 22.3192C106.857 22.2642 106.829 22.2042 106.914 22.1532C107.11 22.0352 107.077 21.9142 107.092 21.7932C107.112 21.6252 107.143 21.4572 107.209 21.2892C107.241 21.2062 107.353 21.1242 107.443 21.0432C107.525 20.9682 107.82 21.0082 107.852 21.0342C107.945 21.1102 108.084 21.0492 108.207 21.0422C108.249 21.0392 108.302 21.0362 108.336 21.0402C108.411 21.0482 108.921 22.0132 108.917 22.1192C108.918 22.1302 108.958 22.4872 109.001 22.8662C109.046 23.2422 109.094 23.6342 109.114 23.7142C109.134 23.7982 109.088 23.8822 109.06 23.9662C109.048 24.0062 109.216 25.1332 109.211 25.1782C109.193 25.4122 109.258 25.6462 109.079 25.8792C109.044 25.9242 109.052 25.9722 109.055 26.0182C109.073 26.4202 108.996 26.8212 108.945 27.2232C108.918 27.4282 108.937 27.6332 108.93 27.8392C108.928 27.8752 108.903 27.9122 108.891 27.9492C108.876 27.9962 108.852 28.0432 108.853 28.0892C108.861 28.5752 108.761 29.0602 108.823 29.5462C108.836 29.6582 108.637 30.1922 108.661 30.3212C108.673 30.3932 108.401 30.6292 108.445 30.6932" fill="#202020"/>
<path fill-rule="evenodd" clip-rule="evenodd" d="M119.335 42.7435C119.288 42.9565 119.025 42.8805 118.607 42.6585C118.474 42.5865 118.172 42.2755 118.171 42.1915C118.169 42.0295 118.173 41.8665 118.203 41.7245C118.214 41.6185 118.935 40.7425 119.181 40.4395C119.417 40.1495 119.698 39.9135 119.99 39.7015C120.584 39.2675 121.174 38.8385 121.784 38.4375C121.919 38.3475 122.068 38.2805 122.227 38.2315C122.772 38.0635 123.25 37.7915 123.711 37.4805C123.789 37.4295 123.877 37.3945 123.92 37.2855C123.981 37.0965 125.326 36.3805 125.537 36.3555C126.036 36.2595 126.537 36.1755 127.054 36.1245C127.127 36.1175 127.189 36.0665 127.281 36.1265C127.491 36.2635 127.627 36.1885 127.779 36.1585C127.99 36.1155 128.208 36.0975 128.439 36.1165C128.553 36.1245 128.681 36.2025 128.799 36.2575C128.907 36.3075 128.917 36.5715 128.895 36.6085C128.828 36.7135 128.928 36.8145 128.961 36.9175C128.972 36.9525 128.987 36.9985 128.99 37.0285C128.974 37.0705 128.146 37.9665 128.048 38.0215C128.034 38.0335 127.685 38.2265 127.327 38.4745C126.966 38.7065 126.574 38.9285 126.503 38.9905C126.426 39.0495 126.316 39.0435 126.217 39.0595C126.167 39.0625 125.09 39.8035 125.045 39.8295C124.794 39.9315 124.599 40.1355 124.272 40.1065C124.209 40.1005 124.165 40.1365 124.12 40.1655C123.731 40.4245 123.292 40.5965 122.872 40.8045C122.655 40.9085 122.467 41.0565 122.267 41.1845C122.231 41.2065 122.18 41.2075 122.137 41.2215C122.084 41.2385 122.024 41.2465 121.98 41.2775C121.521 41.6015 121.002 41.8435 120.601 42.2365C120.514 42.3265 119.897 42.5305 119.81 42.6505C119.76 42.7125 119.354 42.6555 119.335 42.7435" fill="#202020"/>
<path fill-rule="evenodd" clip-rule="evenodd" d="M121.063 56.2523C120.85 56.2313 120.896 55.9463 121.104 55.5263C121.17 55.3933 121.469 55.0713 121.545 55.0523C121.696 55.0183 121.844 54.9833 121.969 54.9743C122.042 54.9803 122.871 55.3033 123.176 55.3513C123.463 55.4163 123.712 55.5283 123.958 55.6483C124.464 55.8803 124.962 56.1223 125.488 56.3253C125.605 56.3713 125.706 56.4463 125.806 56.5343C126.143 56.8463 126.556 57.0103 126.992 57.1053C127.065 57.1203 127.132 57.1583 127.228 57.0993C127.378 57.0123 128.544 57.3423 128.681 57.4473C129.018 57.7033 129.372 57.9233 129.721 58.1783C129.771 58.2133 129.839 58.2003 129.862 58.3143C129.917 58.5783 130.048 58.5753 130.164 58.6283C130.326 58.6983 130.484 58.7883 130.624 58.9443C130.694 59.0163 130.741 59.1693 130.797 59.2903C130.848 59.4013 130.73 59.6783 130.694 59.7053C130.592 59.7803 130.616 59.9383 130.59 60.0623C130.581 60.1053 130.569 60.1603 130.557 60.1933C130.543 60.2263 130.246 60.3523 129.934 60.4843C129.631 60.5773 129.315 60.6603 129.262 60.6463C129.249 60.6443 128.867 60.6053 128.46 60.5643C128.066 60.5043 127.653 60.4433 127.548 60.4273C127.455 60.4233 127.384 60.3403 127.308 60.2803C127.274 60.2633 126.042 60.0413 125.995 60.0103C125.761 59.8983 125.484 59.8793 125.318 59.5923C125.286 59.5353 125.233 59.5263 125.183 59.5113C124.755 59.3693 124.374 59.1103 123.99 58.8663C123.794 58.7403 123.577 58.6553 123.372 58.5473C123.334 58.5273 123.312 58.4813 123.282 58.4483C123.244 58.4073 123.211 58.3563 123.165 58.3323C122.68 58.0693 122.282 57.6693 121.798 57.4033C121.68 57.3463 121.347 56.7833 121.221 56.7143C121.146 56.6763 121.147 56.2583 121.063 56.2523" fill="#202020"/>
</svg>
