<svg width="148" height="148" viewBox="0 0 148 148" fill="none" xmlns="http://www.w3.org/2000/svg">
<path fill-rule="evenodd" clip-rule="evenodd" d="M50.6308 44.8186L52.4908 44.0716C53.1038 43.8046 53.6988 43.4996 54.3058 43.2146C55.5278 42.6646 56.6928 41.9986 57.8608 41.3356C58.7288 40.8756 59.5058 40.2706 60.3388 39.7546C63.2448 37.8826 66.0388 35.8006 68.6268 33.4696C69.7588 32.4196 70.8908 31.3516 71.9248 30.2166C72.6088 29.5066 73.2498 28.7546 73.9068 28.0166C74.5578 27.2736 75.2768 26.5886 75.9898 25.8966C76.4438 25.4736 76.5758 25.6866 76.4618 26.2726C76.3268 26.8396 76.0528 27.8796 75.3388 28.7936C72.7358 31.9576 69.8318 34.9086 66.4968 37.3816C65.9998 37.7516 65.5088 38.1376 65.0168 38.5286C64.5118 38.9056 64.0038 39.2836 63.4948 39.6636C62.4988 40.4526 61.4328 41.1606 60.3788 41.8616C59.2298 42.6506 57.9828 43.2886 56.7878 44.0036C55.5458 44.6356 54.3088 45.2806 53.0398 45.8536C51.4588 46.5226 49.8868 47.2066 48.2518 47.7246C47.6368 47.9316 47.0298 48.1636 46.4068 48.3466L44.5258 48.8486C43.8968 49.0066 43.2778 49.2066 42.6458 49.3376L40.7498 49.7266C40.2608 49.8376 39.7758 49.9466 39.2898 50.0566C38.8048 50.1676 38.3138 50.2266 37.8268 50.3186C36.8508 50.4856 35.8758 50.6736 34.8898 50.8046C34.4538 50.8406 34.0288 50.8946 33.5878 50.9196C31.9518 51.0196 31.4248 50.8656 31.0758 50.3616C30.9968 50.2446 30.8928 50.1306 30.8468 50.0136C30.6938 49.6226 31.3448 49.2556 32.4938 49.0596C33.3488 48.9436 34.2098 48.8276 35.0768 48.7106C35.9388 48.5436 36.8078 48.3936 37.6858 48.2696C38.5678 48.1696 39.4398 47.9786 40.3158 47.7926C41.1888 47.5966 42.0838 47.4786 42.9498 47.2356C45.5378 46.5726 48.1288 45.8216 50.6098 44.7766L50.6308 44.8186Z" fill="#F9F9F7"/>
<path fill-rule="evenodd" clip-rule="evenodd" d="M54.5053 112.266C52.7303 110.048 51.4203 107.8 50.0783 105.481C48.7623 103.167 47.5643 100.797 46.4123 98.4154C45.5733 96.6764 44.7073 94.9544 43.9273 93.1964L35.8923 74.5714C34.7093 71.8134 33.4953 69.0474 32.3563 66.2904C31.6243 64.5194 30.8753 62.7504 30.1963 60.9514C29.8523 60.0544 29.5293 59.1474 29.2203 58.2384C28.9053 57.3304 28.7043 56.3834 28.4703 55.4504C28.2023 54.2784 28.5383 54.3384 29.2553 55.1564C29.6143 55.5644 30.0743 56.1594 30.5963 56.8864C31.0813 57.6254 31.5423 58.5284 31.9503 59.5414C33.3883 63.1414 34.9343 66.6974 36.4543 70.2814C37.9503 73.8824 39.4503 77.4914 40.9593 81.1214C42.7493 85.4774 44.8053 89.9264 46.8163 94.2724C49.0303 99.0494 51.3903 103.754 54.1963 108.179C55.8763 110.885 58.0583 113.191 60.5533 115.217C64.2983 118.312 68.6253 120.745 73.0263 122.768C76.4713 124.311 80.0043 125.46 83.5953 126.375C84.3863 126.571 85.1613 126.764 85.9583 126.961C88.9153 127.654 89.8273 127.984 90.4103 128.599C90.5433 128.736 90.7263 128.875 90.8003 128.994C90.9243 129.195 90.6673 129.32 90.0793 129.402C89.4963 129.472 88.5613 129.567 87.4203 129.377C83.9913 128.988 80.5703 128.046 77.2193 126.82C73.8643 125.596 70.5603 124.092 67.3813 122.324C62.7063 119.636 58.1513 116.531 54.4693 112.306L54.5053 112.266Z" fill="#F9F9F7"/>
<path fill-rule="evenodd" clip-rule="evenodd" d="M116.484 84.1326C116.138 88.2656 115.863 92.4126 115.673 96.5576C115.619 97.3216 115.672 98.0396 115.566 98.8886C115.449 99.7096 115.366 100.556 115.112 101.309C113.527 106.763 110.351 111.284 107.016 115.523C105.525 117.405 103.957 119.238 102.339 120.987C100.248 123.212 98.0533 125.404 95.4523 127.089C94.6413 127.614 94.5133 127.186 94.8883 126.362C95.2723 125.548 96.1023 124.311 97.3203 123.119C101.611 118.859 105.677 114.293 109.133 109.256C109.633 108.493 110.15 107.725 110.575 106.905C110.795 106.5 111.024 106.095 111.233 105.681L111.808 104.417C112.219 103.58 112.464 102.694 112.79 101.832C113.004 100.953 113.296 100.07 113.379 99.2106C113.462 98.7316 113.534 98.2796 113.527 97.7466L113.585 96.1686L113.725 93.0156C113.828 90.9156 113.954 88.8156 114.089 86.7176C114.259 84.1346 114.47 81.5536 114.683 78.9756C115.026 75.0696 115.48 71.1546 115.951 67.2846C116.38 64.2816 116.683 61.3176 117.378 58.3526C117.521 57.6996 117.626 57.0526 117.856 56.4026C118.693 54.0156 119.402 53.3706 119.954 53.0826C120.09 53.0176 120.238 52.9196 120.345 52.9016C120.714 52.8526 120.494 53.8606 120.103 55.5226C119.031 60.5826 118.374 66.0966 117.708 71.6546C117.242 75.7856 116.845 79.9576 116.54 84.1316L116.484 84.1326Z" fill="#F9F9F7"/>
<path fill-rule="evenodd" clip-rule="evenodd" d="M102.665 33.929C101.63 33.518 100.606 33.094 99.6164 32.598C98.6064 32.145 97.6404 31.611 96.6704 31.09C95.9534 30.729 95.2494 30.345 94.5614 29.934C92.1644 28.435 89.8844 26.777 87.7394 24.974C86.7684 24.2 85.8274 23.379 84.8704 22.604L83.0734 21.047C82.5014 20.497 81.9574 19.917 81.4664 19.293C80.8524 18.522 82.9244 18.235 84.2414 19.388C86.6134 21.438 89.0414 23.381 91.4894 25.394C92.2164 26.006 93.0274 26.531 93.8604 27.029C94.6784 27.554 95.5524 27.987 96.3904 28.469C97.3034 29.016 98.2734 29.45 99.2114 29.951C100.177 30.391 101.14 30.848 102.126 31.241L103.96 31.942C104.577 32.161 105.207 32.337 105.831 32.533C106.771 32.85 107.749 33.027 108.71 33.27C109.678 33.484 110.663 33.596 111.634 33.73C112.397 33.773 113.155 33.766 113.904 33.77C114.655 33.755 115.401 33.662 116.146 33.626C116.475 33.612 116.794 33.564 117.122 33.52C118.34 33.396 118.74 33.535 119.081 34.147C119.158 34.286 119.256 34.424 119.31 34.565C119.492 35.042 119.018 35.49 118.069 35.724C116.666 36.109 115.182 36.22 113.677 36.278C112.926 36.27 112.17 36.213 111.411 36.164C110.659 36.067 109.907 35.946 109.154 35.827C108.04 35.635 106.946 35.336 105.853 35.055C104.784 34.695 103.687 34.415 102.648 33.986L102.665 33.929Z" fill="#F9F9F7"/>
<path fill-rule="evenodd" clip-rule="evenodd" d="M62.9247 65.7786C61.5157 70.9226 62.6207 76.6266 65.5197 81.2196C66.5687 82.9086 67.8917 84.4156 69.3247 85.7886C71.8787 88.1746 74.9557 90.0806 78.3447 90.9766C81.7137 91.9426 85.3537 91.7986 88.6627 90.6116C91.5647 89.4906 94.2237 87.5516 96.2397 85.2016C98.8267 82.1176 100.256 78.2486 100.821 74.3016C100.947 73.0686 101.398 73.1756 101.888 74.3186C102.115 74.8906 102.333 75.7306 102.393 76.7656C102.482 77.8026 102.336 79.0216 101.898 80.2496C101.14 82.4326 100.003 84.4716 98.5707 86.2876C97.8597 87.1946 97.0517 88.0496 96.1857 88.8016L94.8757 89.9146L93.4577 90.9046C91.5087 92.1436 89.3377 93.0756 87.0607 93.5626C84.7857 94.0536 82.4237 94.0946 80.1537 93.7186C74.7347 92.7996 69.5517 89.9386 65.9297 85.7656C61.9217 81.2486 59.5457 75.1576 59.9717 69.0716C60.2267 65.3306 61.4637 61.7386 63.6367 58.6456C65.3707 56.3656 67.6517 54.6506 70.0657 53.2966C71.2737 52.6116 72.5337 52.0316 73.8227 51.5406C75.1087 51.0406 76.4227 50.6176 77.7637 50.3086C79.8427 49.8046 81.9667 49.5236 84.1157 49.5526C86.2607 49.5686 88.4497 49.9566 90.4987 50.8726C90.9487 51.0736 91.3777 51.3176 91.8127 51.5496C92.2187 51.8296 92.6587 52.0726 93.0377 52.4086C94.5157 53.5896 95.0937 54.7586 95.4217 55.5316C95.5687 55.9376 95.6757 56.2576 95.6937 56.5506C95.6947 56.8516 95.6507 57.1046 95.5977 57.3296C95.5477 57.5366 95.5297 57.7806 95.4747 57.9036C95.3787 58.1156 95.1227 57.9246 94.6607 57.4926C94.2017 57.0616 93.6657 56.3376 92.8807 55.5446C91.7157 54.3796 90.3607 53.4466 88.7927 52.8586C87.2357 52.2566 85.5017 52.0086 83.7437 51.9686C80.2147 51.9086 76.5387 52.7846 73.2017 54.3026C70.7417 55.4576 68.3987 56.9526 66.5827 58.8596C66.1347 59.3376 65.7207 59.8356 65.3467 60.3546C65.1667 60.6156 65.0087 60.8856 64.8347 61.1496L64.3887 62.0406L63.9407 62.9326L63.5837 63.8726C63.3217 64.4926 63.1557 65.1406 62.9847 65.7866L62.9247 65.7786Z" fill="#F9F9F7"/>
<path fill-rule="evenodd" clip-rule="evenodd" d="M95.122 67.5892C93.744 69.6072 92.553 71.7882 91.44 74.0322C91.033 74.8522 90.737 75.7212 90.347 76.5562L89.328 78.7932C88.8 79.9742 88.293 81.4362 87.565 82.0712C87.384 82.2282 87.223 82.4002 86.997 82.4532C86.943 82.4712 86.883 82.4882 86.815 82.5012L86.763 82.5062L86.75 82.5082H86.747C86.743 82.4982 86.766 82.6012 86.755 82.5572H86.749L86.725 82.5562L86.631 82.5552C86.512 82.5432 86.4 82.5262 86.291 82.4902C85.855 82.3372 85.396 82.0922 84.93 81.6862C84.463 81.2832 84.019 80.7552 83.606 80.2552L83.05 79.5902L82.659 79.1042C81.735 77.9582 80.751 76.8722 79.743 75.8582C79.091 75.2122 78.415 74.5982 77.776 73.9822L77.291 73.5332L77.051 73.3172C77.011 73.2802 76.972 73.2452 76.93 73.2142C76.913 73.1482 76.873 73.1132 76.845 73.0612C76.733 72.8522 76.576 72.7052 76.418 72.5822C76.264 72.4512 76.104 72.3272 75.957 72.2432C75.655 72.0602 75.51 71.7122 76.173 71.3992C76.507 71.2572 76.997 71.2072 77.542 71.2552C77.81 71.2892 78.185 71.2002 78.483 71.2772C78.754 71.3732 79.03 71.5022 79.274 71.6692C81.044 72.8252 82.365 74.2802 83.702 75.6832L84.669 76.7572L85.14 77.2972L85.372 77.5662C85.444 77.6512 85.409 77.6292 85.434 77.6672C85.492 77.8262 85.545 78.0452 85.773 78.3712C85.858 78.4882 85.916 78.4102 85.96 78.3822C86.007 78.3402 86.05 78.2812 86.092 78.2122C86.181 78.0552 86.234 77.9412 86.331 77.6822C86.729 76.5672 87.118 75.4212 87.581 74.3132C88.586 71.8682 89.82 69.4982 91.212 67.2242C92.068 65.8232 93.005 64.4682 94.008 63.1622C95.516 61.1722 97.309 59.3852 99.218 57.7852C100.699 56.5462 102.197 55.3062 103.953 54.4242C104.338 54.2332 104.707 54.0232 105.115 53.8672C105.862 53.5562 106.419 53.5332 106.811 53.5592C107.209 53.5972 107.474 53.7612 107.717 54.0222C107.827 54.1422 107.958 54.2532 108.034 54.3762C108.289 54.7942 107.796 55.3362 106.918 55.9612C104.268 57.6752 101.818 59.5632 99.649 61.9262C98.076 63.6932 96.499 65.5422 95.199 67.6322L95.122 67.5892Z" fill="#0F7B6C"/>
<path fill-rule="evenodd" clip-rule="evenodd" d="M49.9814 42.0022C52.7804 40.6292 55.4894 39.0232 58.0724 37.2162C59.0114 36.5522 59.8884 35.8072 60.8024 35.1072C64.0384 32.6552 67.1194 29.9522 69.9464 26.9942C71.1924 25.6752 72.3794 24.2852 73.4674 22.8532C74.1634 21.9312 74.8284 20.9822 75.4784 20.0352C76.0964 19.0662 76.9024 18.2212 77.5794 17.3042C78.0114 16.7502 78.3374 16.9812 78.4714 17.7672C78.5394 18.1622 78.5484 18.6862 78.4804 19.2892C78.3834 19.8712 78.3034 20.5892 77.9094 21.1672C76.6064 23.2662 75.1634 25.2482 73.5914 27.1282C72.0204 29.0082 70.2484 30.7172 68.3914 32.3302C66.1644 34.2472 63.9974 36.3992 61.6224 38.2462C59.0184 40.2782 56.2534 42.1102 53.3754 43.7362C51.5964 44.7242 49.7854 45.6572 47.9224 46.4752C45.1094 47.7372 42.1674 48.7242 39.2244 49.5662C36.9424 50.2432 34.6744 50.8932 32.3214 51.3032C31.8024 51.3802 31.2964 51.4872 30.7694 51.5462C29.7934 51.6772 29.1374 51.5912 28.6814 51.4432C28.2234 51.2842 27.9604 51.0112 27.7524 50.5802C27.6564 50.3832 27.5334 50.1902 27.4794 49.9942C27.3014 49.3362 28.0644 48.7432 29.3854 48.4542C30.3704 48.2752 31.3534 48.0092 32.3454 47.8342C33.3284 47.5662 34.3274 47.3942 35.3204 47.1432C37.3154 46.6982 39.3114 46.1362 41.2984 45.5122C44.2404 44.5542 47.1504 43.3782 49.9394 41.9342L49.9814 42.0022Z" fill="#F9F9F7"/>
<path fill-rule="evenodd" clip-rule="evenodd" d="M87.184 128.928C74.632 125.235 59.777 119.806 54.081 111.364C48.787 103.517 44.939 94.5465 41.035 85.9175C36.643 76.2135 32.128 66.4225 28.721 56.3425L27 59.7835C30.408 69.8645 34.922 79.6545 39.314 89.3585C43.219 97.9885 47.065 106.958 52.36 114.805C57.279 122.096 79.304 131.419 83.449 130.256L87.184 128.928Z" fill="#F9F9F7"/>
<path fill-rule="evenodd" clip-rule="evenodd" d="M104.769 37.4475C102.964 36.9905 101.207 36.3565 99.478 35.6835C98.848 35.4355 98.217 35.1845 97.599 34.9085C95.45 33.8605 93.389 32.6405 91.496 31.1985C91.06 30.9035 90.669 30.5415 90.248 30.2245C89.839 29.8925 89.402 29.5955 89.022 29.2345C88.523 28.7855 87.999 28.3595 87.512 27.8935C87.05 27.4025 86.605 26.8935 86.207 26.3505C85.711 25.6835 87.409 25.6125 88.451 26.6145C90.369 28.3845 92.435 29.9465 94.608 31.4645C95.263 31.9125 95.962 32.3235 96.707 32.6555L97.814 33.1765L98.947 33.6395C100.588 34.3515 102.3 34.9025 104.027 35.4055C105.102 35.6675 106.174 35.9605 107.269 36.1425C108.918 36.4665 110.6 36.6885 112.269 36.7855C113.57 36.8315 114.846 36.7575 116.126 36.6785L116.967 36.6195C118.019 36.5665 118.356 36.6865 118.608 37.1755C118.665 37.2855 118.74 37.3965 118.776 37.5085C118.898 37.8855 118.476 38.2165 117.683 38.3645C116.51 38.5955 115.289 38.6935 114.049 38.7325C112.809 38.7575 111.554 38.6465 110.3 38.5225C108.44 38.2875 106.583 37.9595 104.761 37.4925L104.769 37.4475Z" fill="#F9F9F7"/>
</svg>
