<svg width="102" height="102" viewBox="0 0 102 102" fill="none" xmlns="http://www.w3.org/2000/svg">
<path d="M78.06 74.12C75.4855 76.6157 72.5196 78.6729 69.28 80.21C66.1164 81.6887 62.7806 82.767 59.35 83.42C56.9074 83.9387 54.4252 84.2498 51.93 84.35C43.1533 84.552 34.5122 82.1586 27.09 77.47C23.8013 75.3835 20.8619 72.7917 18.38 69.79C16.7696 67.8575 15.4244 65.7186 14.38 63.43C13.4632 61.0917 12.9951 58.6016 13 56.09C13 54.54 14.07 54.69 15.4 55.68C17.0887 56.9845 18.5428 58.5672 19.7 60.36C21.3977 64.0772 23.9097 67.365 27.05 69.98C30.3333 72.7459 34.0497 74.9521 38.05 76.51C42.98 78.51 48.73 78.75 54.13 78.27C60.1044 77.8776 65.8519 75.8313 70.73 72.36C73.6892 70.173 76.1842 67.4196 78.07 64.26C80.9908 59.3347 82.7647 53.8147 83.26 48.11C83.565 43.707 83.269 39.2831 82.38 34.96C82.2 34.01 81.95 33.09 81.77 32.14C81.33 28.58 81.44 27.4 82.92 26.22C83.1909 25.9524 83.4781 25.702 83.78 25.47C84.62 24.87 86.39 26.04 87.41 28.78C88.2252 30.8175 88.8056 32.9412 89.14 35.11C89.5228 37.3216 89.7533 39.5568 89.83 41.8C89.9889 46.4339 89.5077 51.0676 88.4 55.57C86.7668 62.6079 83.2275 69.0604 78.17 74.22L78.06 74.12Z" fill="#202020"/>
<path d="M32.3401 28.6C32.7101 31.84 34.7201 35.93 37.8301 37.36C39.1701 37.98 41.1601 37.59 41.5001 35.87C41.9604 32.8384 41.341 29.7414 39.7501 27.12C39.112 25.8642 38.1658 24.7908 37.0001 24C36.1477 23.5538 35.1362 23.5301 34.2638 23.9359C33.3915 24.3417 32.758 25.1306 32.5501 26.07C31.6501 29.16 36.4701 30.48 37.3701 27.39L37.4801 26.99L36.3301 28.49L35.7401 28.66L34.0001 27.93C35.6901 29.28 37.1301 32.34 36.7001 34.54L40.3701 33.04C38.78 32.0583 37.6876 30.4415 37.3701 28.6C37.3284 27.2369 36.2332 26.1416 34.8701 26.1C33.4939 26.1109 32.381 27.2238 32.3701 28.6H32.3401Z" fill="#202020"/>
<path d="M47.48 21.91C47.86 25.22 49.94 29.64 53.12 31.13C54.46 31.75 56.46 31.35 56.79 29.63C57.2354 26.4718 56.5747 23.2567 54.92 20.53C54.2805 19.2524 53.3231 18.1608 52.14 17.36C51.2974 16.9132 50.2957 16.8806 49.4258 17.2716C48.5559 17.6625 47.9153 18.4333 47.69 19.36C46.79 22.46 51.62 23.78 52.51 20.69L52.63 20.29L51.48 21.79L50.88 21.96L49.11 21.23C50.87 22.64 52.41 26.01 51.97 28.29L55.64 26.8C54.12 26.09 52.64 23.54 52.48 21.9C52.12 18.74 47.11 18.7 47.48 21.9V21.91Z" fill="#202020"/>
</svg>
