<svg width="36" height="36" viewBox="0 0 36 36" fill="none" xmlns="http://www.w3.org/2000/svg">
<rect width="36" height="36" rx="4" fill="#F9F9F7"/>
<path d="M27 25.0001V26.0001H9V25.0001L11 23.0001V17.0001C11 13.9001 13.03 11.1701 16 10.2901C16 10.1901 16 10.1001 16 10.0001C16 9.46969 16.2107 8.96098 16.5858 8.58591C16.9609 8.21084 17.4696 8.00012 18 8.00012C18.5304 8.00012 19.0391 8.21084 19.4142 8.58591C19.7893 8.96098 20 9.46969 20 10.0001C20 10.1001 20 10.1901 20 10.2901C22.97 11.1701 25 13.9001 25 17.0001V23.0001L27 25.0001ZM20 27.0001C20 27.5306 19.7893 28.0393 19.4142 28.4143C19.0391 28.7894 18.5304 29.0001 18 29.0001C17.4696 29.0001 16.9609 28.7894 16.5858 28.4143C16.2107 28.0393 16 27.5306 16 27.0001H20ZM25.75 9.19012L24.33 10.6101C26.04 12.3001 27 14.6001 27 17.0001H29C29 14.0701 27.84 11.2501 25.75 9.19012ZM7 17.0001H9C9 14.6001 9.96 12.3001 11.67 10.6101L10.25 9.19012C8.16 11.2501 7 14.0701 7 17.0001Z" fill="#202020"/>
</svg>
