<svg width="36" height="36" viewBox="0 0 36 36" fill="none" xmlns="http://www.w3.org/2000/svg">
<rect width="36" height="36" rx="4" fill="#202020"/>
<g clip-path="url(#clip0_120_138)">
<path d="M22.8331 28.2248L22.4635 26.2807C23.7666 25.5895 24.9271 24.5834 25.8152 23.282C28.7391 18.9947 27.624 13.1108 23.3258 10.1736C19.0308 7.23327 13.154 8.33023 10.2269 12.6175C8.94328 14.4998 8.44085 16.6872 8.63858 18.8033L6.75851 19.1538C6.47326 16.5574 7.07294 13.854 8.65155 11.54C12.1686 6.38621 19.235 5.06532 24.3987 8.5996C29.5624 12.1339 30.9044 19.2057 27.3906 24.3594C26.2042 26.0957 24.6191 27.3972 22.8331 28.2248Z" fill="#3E3E3D"/>
<path d="M22.5932 28.6953L22.1005 26.1055L22.3112 25.9919C23.6045 25.3071 24.7228 24.3043 25.5462 23.097C28.3695 18.9558 27.2933 13.2763 23.141 10.4398C21.1345 9.06695 18.7099 8.55741 16.3209 9.00204C13.9287 9.44991 11.8606 10.7968 10.4959 12.7992C9.30956 14.5388 8.76499 16.6613 8.96272 18.7708L8.99189 19.0661L6.47649 19.5367L6.43759 19.1895C6.13289 16.4243 6.82657 13.643 8.38573 11.355C10.1361 8.79108 12.7877 7.06451 15.8476 6.49332C18.9109 5.92212 22.013 6.57445 24.5802 8.33348C29.893 11.9684 31.2739 19.2414 27.6564 24.5444C26.4797 26.271 24.859 27.6471 22.9692 28.5201L22.5932 28.6953ZM22.8266 26.4527L23.0729 27.7477C24.6969 26.9201 26.0908 25.6901 27.1215 24.1777C30.5381 19.17 29.2318 12.3026 24.2139 8.86897C21.7893 7.20731 18.859 6.59068 15.9643 7.13267C13.0729 7.67141 10.5705 9.30386 8.91734 11.725C7.51053 13.7891 6.85251 16.2783 7.047 18.774L8.29173 18.5404C8.15559 16.3789 8.7423 14.2207 9.95785 12.4357C11.4198 10.2905 13.6369 8.84626 16.201 8.36593C18.7617 7.88885 21.3582 8.43409 23.5073 9.90427C27.9514 12.9452 29.1053 19.0304 26.081 23.4637C25.2447 24.6937 24.1199 25.7193 22.8266 26.4495V26.4527Z" fill="#3E3E3D"/>
<path d="M22.3534 29.1627L21.744 25.9594L22.1913 25.7355C23.4555 25.0637 24.4733 24.0966 25.2804 22.9152C28.0033 18.9233 26.9628 13.445 22.9628 10.7091C21.0276 9.38499 18.7229 8.93388 16.4149 9.36552C14.1102 9.79716 12.0811 11.0564 10.765 12.9842C9.62078 14.6621 9.04379 16.7164 9.23504 18.7513L9.30635 19.3387L6.19128 19.9197L6.11348 19.2252C5.8023 16.3854 6.51219 13.5262 8.11672 11.1732C9.91899 8.53793 12.6645 6.80162 15.812 6.2142C18.9595 5.62678 22.1264 6.25964 24.765 8.0641C30.2269 11.7996 31.6435 19.2738 27.9255 24.7262C26.7164 26.5014 25.047 27.9132 23.1054 28.8154L22.3501 29.1659L22.3534 29.1627ZM22.4636 26.2807L22.8331 28.2247C24.671 27.3744 26.2464 26.0373 27.3906 24.3594C30.9076 19.2024 29.5657 12.1339 24.3987 8.5996C21.9028 6.8925 18.8882 6.25639 15.9093 6.81136C12.9303 7.36633 10.3566 9.04747 8.65481 11.54C7.13779 13.7631 6.4668 16.4698 6.76178 19.1538L8.64184 18.8032C8.43763 16.6158 9.00165 14.4219 10.2302 12.6174C11.6435 10.5436 13.7861 9.14807 16.2658 8.68398C18.7423 8.22312 21.2512 8.74889 23.329 10.1704C27.6273 13.1108 28.7423 18.9915 25.8185 23.2787C24.966 24.5282 23.8055 25.5667 22.4668 26.2775L22.4636 26.2807Z" fill="#3E3E3D"/>
<path d="M29.4554 20.0722C29.6078 19.1927 28.8104 18.5274 27.9903 18.6799C27.423 18.787 27.0146 19.2446 26.9109 19.7866C26.684 20.9647 26.2204 22.1136 25.5008 23.1651C22.6775 27.3031 17.0049 28.3643 12.8525 25.5246C8.7034 22.6848 7.62723 17.0053 10.4473 12.8674C11.517 11.2998 12.9919 10.1769 14.6418 9.53429C15.235 9.30386 15.637 8.68723 15.5105 8.02841C15.3711 7.30143 14.6321 6.81137 13.8995 7.08074C11.7115 7.88885 9.74716 9.35579 8.33711 11.4231C4.72285 16.7262 6.10697 24.0024 11.4165 27.6341C16.7293 31.269 23.9935 29.9124 27.611 24.6093C28.5705 23.2008 29.1799 21.656 29.4554 20.0722Z" fill="#E8E8E6"/>
<path d="M13.0827 14.6166C12.59 15.1229 12.5867 15.9408 13.0827 16.4438L16.4441 19.858C17.0794 20.5006 18.1167 20.5006 18.752 19.858L26.4538 12.0397L26.5575 11.9359C27.0535 11.4426 27.1151 10.628 26.6029 10.099C26.081 9.56348 25.2447 9.61216 24.7423 10.1152L23.2901 11.5724L20.3177 14.5907V14.5971H20.3112L18.2853 16.6515C17.906 17.0377 17.2804 17.0377 16.9011 16.6515L14.8947 14.6134C14.3955 14.1071 13.5819 14.1071 13.0827 14.6134V14.6166Z" fill="#E8E8E6"/>
<path d="M17.9806 30C15.5851 30 13.2512 29.2828 11.235 27.9035C5.7731 24.168 4.35657 16.6937 8.07456 11.2414C9.47812 9.18378 11.4554 7.63896 13.7925 6.77567C14.2172 6.61989 14.6645 6.65559 15.0567 6.87628C15.4619 7.1067 15.7472 7.50265 15.8347 7.96675C15.9838 8.75214 15.5332 9.53754 14.765 9.83612C13.1151 10.4787 11.718 11.5887 10.7229 13.0491C8 17.041 9.04052 22.5193 13.0405 25.2552C14.9757 26.5793 17.3128 27.0726 19.6175 26.641C21.9222 26.2093 23.919 24.9112 25.235 22.9801C25.9092 21.9903 26.3825 20.9355 26.6353 19.7412C26.7812 19.0434 27.2545 18.4852 27.9319 18.3586C28.4538 18.2613 28.9822 18.4235 29.3549 18.7903C29.7083 19.1408 29.8865 19.6244 29.799 20.1209C29.5073 21.7988 28.846 23.3728 27.8801 24.7878C26.081 27.4231 23.3582 29.1984 20.2107 29.7891C19.4684 29.9286 18.7229 29.9968 17.9838 29.9968L17.9806 30ZM14.3177 7.33064C14.2172 7.33064 14.1167 7.35011 14.0162 7.38581C11.8055 8.20042 9.93517 9.66086 8.6094 11.6081C5.09238 16.7651 6.43436 23.8337 11.6013 27.368C14.1005 29.0783 17.1151 29.7112 20.0908 29.1562C23.0697 28.6012 25.6434 26.9201 27.3452 24.4276C28.2593 23.0872 28.8622 21.6041 29.1378 20.0171C29.1864 19.7282 29.1021 19.4588 28.8979 19.2576C28.6775 19.0402 28.3598 18.9428 28.0486 19.0012C27.6337 19.0791 27.3128 19.4102 27.2285 19.8483C26.9854 21.1075 26.4927 22.2856 25.7699 23.3501C24.3566 25.4239 22.2139 26.8195 19.7342 27.2836C17.2577 27.7444 14.7488 27.2187 12.671 25.7972C8.37601 22.8536 7.2577 16.9728 10.1848 12.6856C11.2545 11.1181 12.7585 9.92374 14.5284 9.23247C15.0049 9.04748 15.2869 8.56715 15.1961 8.09007C15.1442 7.81421 14.9757 7.57729 14.7358 7.44098C14.6062 7.36634 14.4635 7.33064 14.3177 7.33064Z" fill="#E8E8E6"/>
<path d="M17.5981 20.6629C17.0729 20.6629 16.5835 20.4584 16.2139 20.082L12.8525 16.6678C12.2334 16.0414 12.2334 15.0158 12.8525 14.3862H12.8558C13.1605 14.0779 13.5624 13.9091 13.9935 13.9091H13.9968C14.4246 13.9091 14.8266 14.0779 15.128 14.3862L17.1345 16.4244C17.3809 16.6742 17.812 16.6742 18.0583 16.4244L24.5186 9.8848C24.8331 9.56999 25.2642 9.38824 25.7018 9.38824H25.7115C26.1394 9.38824 26.5413 9.56025 26.8395 9.86857C27.4522 10.4982 27.4295 11.527 26.7909 12.1598L26.6872 12.2637L18.9854 20.082C18.6159 20.4552 18.1264 20.6629 17.6013 20.6629H17.5981ZM13.3128 14.8438C12.9433 15.2333 12.9433 15.8402 13.3128 16.2166L16.6742 19.6308C16.9206 19.8807 17.248 20.017 17.5981 20.017C17.9481 20.017 18.2755 19.8807 18.5219 19.6308L26.3339 11.7055C26.7196 11.3193 26.7391 10.7026 26.376 10.3262C26.201 10.1444 25.9643 10.0438 25.7083 10.0406C25.4392 10.0438 25.1702 10.1509 24.9757 10.3456L23.5235 11.8028L18.5186 16.882C18.2723 17.1319 17.9449 17.2682 17.5948 17.2682C17.2447 17.2682 16.9173 17.1319 16.671 16.882L14.6645 14.8438C14.4862 14.6621 14.2464 14.5615 13.9935 14.5615C13.7374 14.5615 13.4976 14.6621 13.316 14.8438H13.3128Z" fill="#E8E8E6"/>
</g>
<defs>
<clipPath id="clip0_120_138">
<rect width="24" height="24" fill="white" transform="translate(6 6)"/>
</clipPath>
</defs>
</svg>
