<svg width="36" height="36" viewBox="0 0 36 36" fill="none" xmlns="http://www.w3.org/2000/svg">
<rect width="36" height="36" rx="4" fill="#F9F9F7"/>
<path d="M23.9998 13.9999H21.9998V9.99988H23.9998V13.9999ZM20.9998 13.9999H18.9998V9.99988H20.9998V13.9999ZM17.9998 13.9999H15.9998V9.99988H17.9998V13.9999ZM23.9998 7.99988H15.9998L9.99976 13.9999V25.9999C9.99976 26.5303 10.2105 27.039 10.5855 27.4141C10.9606 27.7892 11.4693 27.9999 11.9998 27.9999H23.9998C24.5302 27.9999 25.0389 27.7892 25.414 27.4141C25.789 27.039 25.9998 26.5303 25.9998 25.9999V9.99988C25.9998 9.46944 25.789 8.96074 25.414 8.58566C25.0389 8.21059 24.5302 7.99988 23.9998 7.99988Z" fill="#202020"/>
</svg>
